STARTFONT 2.3
FONT -FontForge-Permanent Marker-Book-R-Normal--36-360-72-72-P-208-ISO10646-1
SIZE 36 72 72  2
FONTBOUNDINGBOX 56 52 -11 -12
COMMENT "Generated by fontforge, http://fontforge.sourceforge.net"
COMMENT "Copyright (c) 2010 by Font Diner, Inc. All rights reserved."
STARTPROPERTIES 40
FOUNDRY "FontForge"
FAMILY_NAME "Permanent Marker"
WEIGHT_NAME "Book"
SLANT "R"
SETWIDTH_NAME "Normal"
ADD_STYLE_NAME ""
PIXEL_SIZE 36
POINT_SIZE 360
RESOLUTION_X 72
RESOLUTION_Y 72
SPACING "P"
AVERAGE_WIDTH 208
CHARSET_REGISTRY "ISO10646"
CHARSET_ENCODING "1"
FONTNAME_REGISTRY ""
CHARSET_COLLECTIONS "ISO10646-1"
BITS_PER_PIXEL 2
FONT_NAME "PermanentMarker-Regular"
FACE_NAME "Permanent Marker Regular"
COPYRIGHT "Copyright (c) 2010 by Font Diner, Inc. All rights reserved."
FONT_VERSION "1.001"
FONT_ASCENT 29
FONT_DESCENT 7
UNDERLINE_POSITION -4
UNDERLINE_THICKNESS 2
X_HEIGHT 20
CAP_HEIGHT 25
RAW_ASCENT 799
RAW_DESCENT 200
NORM_SPACE 13
RELATIVE_WEIGHT 40
RELATIVE_SETWIDTH 50
SUPERSCRIPT_X 0
SUPERSCRIPT_Y 16
SUPERSCRIPT_SIZE 22
SUBSCRIPT_X 0
SUBSCRIPT_Y 4
SUBSCRIPT_SIZE 22
AVG_LOWERCASE_WIDTH 205
AVG_UPPERCASE_WIDTH 245
ENDPROPERTIES
CHARS 230
STARTCHAR space
ENCODING 32
SWIDTH 370 0
DWIDTH 13 0
BBX 1 1 0 0
BITMAP
00
ENDCHAR
STARTCHAR exclam
ENCODING 33
SWIDTH 260 0
DWIDTH 9 0
BBX 10 28 0 -1
BITMAP
000200
001F80
002FD0
003FE0
007FD0
00BFE0
00FFE0
00FFD0
00FFC0
01FF80
02FF80
03FF40
03FF40
07FF00
07FF00
07FE00
0BFD00
07FC00
01A400
000000
000000
050000
2FE000
BFF400
BFF400
7FF000
3FE000
1F4000
ENDCHAR
STARTCHAR quotedbl
ENCODING 34
SWIDTH 492 0
DWIDTH 18 0
BBX 16 18 3 9
BITMAP
02400290
07F803F8
0BFE07FF
0FFF0BFF
1FFE0FFE
2FFD1FFD
3FF82FFC
7FF43FF4
7FF07FF0
BFF0BFE0
FFE0BFE0
FFD0FFE0
FFD1FFC0
FFC1FF80
FF81FF80
7F40FF40
2E007E00
04001400
ENDCHAR
STARTCHAR numbersign
ENCODING 35
SWIDTH 703 0
DWIDTH 25 0
BBX 25 26 1 0
BITMAP
000009000A0000
00002F001F8000
00007F802FC000
0000BFC03FD000
0000FFD07FE000
0001FFC0BFD000
0002FF95FFC000
06ABFFFFFFF900
0FFFFFFFFFFF40
0FFFFFFFFFFFC0
0FFFFFFFFFFE40
0BFFF95BFD0000
001FF40FFC0000
002FF01FF80000
003FF56FF90000
2ABFFFFFFF9000
FFFFFFFFFFF400
FFFFFFFFFFE000
BFFFFFFFEA4000
7FFF41FFC00000
07FF03FF400000
0FFD07FF000000
1FFD0BFE000000
1FFC0FFD000000
1FF80BFC000000
06E002E0000000
ENDCHAR
STARTCHAR dollar
ENCODING 36
SWIDTH 493 0
DWIDTH 18 0
BBX 19 28 1 -1
BITMAP
0000010000
0000078000
00000FC000
00001FD000
00002FE000
00003FF940
0001BFFFD0
006FFFFFF0
0BFFFFFFF8
3FFFFFFFF8
BFFF940000
BFFF900000
BFFFF80000
7FFFFE0000
06BFFF4000
00007FC000
00000BE000
00001FE000
0000BFE000
001BFFC000
1AFFFF4000
2FFFFD0000
2FFFE00000
1FFFD00000
06FF800000
01FF400000
01FF000000
0028000000
ENDCHAR
STARTCHAR percent
ENCODING 37
SWIDTH 643 0
DWIDTH 23 0
BBX 23 26 1 0
BITMAP
000240000010
000FD00000B4
007FD00003F4
01FFD0000FF4
07FFF0003FF0
1FFFF800BFE0
2FD3FC03FF80
3FDBFD0BFE00
7FFFFD2FF800
3FFFF8BFE000
2FFF92FF8000
06A50BFE0000
00002FF80000
0000BFE00000
0002FF81D000
000FFE07F400
007FF42FF400
01FFD0BFF800
07FF42FFFC00
0FFD07FEFE00
2FF40FF0FF00
3FF01FFBFF00
7FD01FFFFF00
7FD00FFFFD00
7F8007FFD000
2E0000540000
ENDCHAR
STARTCHAR ampersand
ENCODING 38
SWIDTH 599 0
DWIDTH 22 0
BBX 21 19 0 1
BITMAP
000000A00000
000007F40000
00000BFC0000
00000FFC0000
01F91FFC0000
0BFFAFFC0000
1FFFFFFC0000
7FFFFFFEA400
BFDFFFFFFE00
BFFFFFFFFF80
7FFFFFFFFF80
1FFFFFFFA500
01ABFFE00000
0001FFD00000
0002FFC00000
0002FFC00000
0002FF800000
0002FF000000
000068000000
ENDCHAR
STARTCHAR quotesingle
ENCODING 39
SWIDTH 265 0
DWIDTH 10 0
BBX 8 18 3 9
BITMAP
0240
07F8
0BFE
0FFF
1FFE
2FFD
3FF8
7FF4
7FF0
BFF0
FFE0
FFD0
FFD0
FFC0
FF80
7F40
2E00
0400
ENDCHAR
STARTCHAR parenleft
ENCODING 40
SWIDTH 361 0
DWIDTH 13 0
BBX 16 38 1 -7
BITMAP
00000005
0000007F
000001FE
000007FE
00002FFE
0000BFFE
0002FFFD
000BFFF8
001FFFD0
003FFE00
00BFFC00
01FFF400
03FFD000
07FFC000
0FFF8000
0FFE0000
1FFD0000
1FFC0000
2FF80000
3FF40000
7FF00000
BFF00000
BFE00000
BFE00000
BFE00000
BFE00000
FFE00000
FFF00000
BFF00000
7FF40000
7FF80000
3FFC0000
2FFC0000
0FF80000
07F80000
01FC0000
00BC0000
00040000
ENDCHAR
STARTCHAR parenright
ENCODING 41
SWIDTH 361 0
DWIDTH 13 0
BBX 17 38 -5 -7
BITMAP
0000040000
00001F4000
00001FC000
00000FE000
00000FF800
00001FFD00
00001FFE00
00000FFF00
00000BFF00
00000BFF40
000007FF80
000007FF40
000003FF40
000003FF40
000003FF40
000003FF40
000007FF40
000007FE00
00000BFE00
00000FFD00
00001FFC00
00002FFC00
00003FF800
0000BFF800
0001FFF000
0002FFE000
0007FFC000
001FFF4000
007FFE0000
01FFFC0000
0BFFF40000
2FFFD00000
3FFF400000
3FFD000000
3FF4000000
3FD0000000
7F00000000
1400000000
ENDCHAR
STARTCHAR asterisk
ENCODING 42
SWIDTH 673 0
DWIDTH 24 0
BBX 23 18 3 8
BITMAP
000B8005F000
003FD02FF000
007FF4BFD000
00BFFEFFC000
003FFFFF4000
000FFFFE0000
016FFFFFFA40
FFFFFFFFFFD0
FFFFFFFFFFF4
FFFFFFFFFFA0
BFFFFFFE5000
191FFFFF0000
003FFFFF4000
007FF2FF8000
00FFE0FF8000
02FFC07F4000
02FF401F4000
001400050000
ENDCHAR
STARTCHAR plus
ENCODING 43
SWIDTH 579 0
DWIDTH 21 0
BBX 19 19 0 0
BITMAP
00001F0000
00007F8000
00007FD000
0000FFD000
0001FFC000
0002FFD000
0002FFD000
1ABFFFFF90
7FFFFFFFF4
7FFFFFFFFC
3FFFFFFFF8
2FFFFFA540
054FFE0000
001FFE0000
001FFD0000
001FFC0000
002FF80000
001BF00000
0001400000
ENDCHAR
STARTCHAR comma
ENCODING 44
SWIDTH 204 0
DWIDTH 7 0
BBX 9 11 -4 -6
BITMAP
01E400
03FF00
07FF40
07FF40
0BFF40
0FFF00
2FFD00
3FFC00
BFF400
BFE000
1F8000
ENDCHAR
STARTCHAR hyphen
ENCODING 45
SWIDTH 609 0
DWIDTH 22 0
BBX 19 7 1 6
BITMAP
0000054000
5AFFFFFE40
FFFFFFFFD0
FFFFFFFFF4
BFFFFFFFE4
7FFAAA9500
1500000000
ENDCHAR
STARTCHAR period
ENCODING 46
SWIDTH 228 0
DWIDTH 8 0
BBX 7 7 -1 -1
BITMAP
0500
2FE0
BFF4
FFF0
BFE0
7FD0
1F40
ENDCHAR
STARTCHAR slash
ENCODING 47
SWIDTH 401 0
DWIDTH 14 0
BBX 19 27 -2 -1
BITMAP
0000000014
00000000BC
00000002FC
00000007FC
0000001FFC
0000003FFC
000000FFF4
000001FFD0
000007FF40
00000FFE00
00003FF800
0000BFE000
0001FFC000
0007FF4000
001FFD0000
003FF80000
00FFE00000
02FFC00000
0BFF000000
1FFD000000
2FF4000000
3FF0000000
3FE0000000
7FE0000000
3FE0000000
2FC0000000
0500000000
ENDCHAR
STARTCHAR zero
ENCODING 48
SWIDTH 686 0
DWIDTH 25 0
BBX 24 29 0 -1
BITMAP
000000010000
0000000BC000
0000006FE000
000001FFF800
000003FFFD00
00001FFFFD00
00007FFFFC00
0001FFFFFC00
0007FFFFFD00
001FFFFFFE00
003FFFFBFF40
00BFFF52FF80
01FFFD01FFD0
03FFF400FFE0
0BFFE0007FF0
0FFF80003FF4
2FFF00002FF8
3FFE00001FFC
3FFC00002FFC
7FF800007FFD
7FF40006FFFD
7FF4006FFFFC
7FFEAFFFFFF8
7FFFFFFFFFE0
2FFFFFFFFF80
1FFFFFFFFE00
0BFFFFFFE400
01FFFFFE0000
001AAA400000
ENDCHAR
STARTCHAR one
ENCODING 49
SWIDTH 322 0
DWIDTH 12 0
BBX 10 27 0 0
BITMAP
004000
01F400
02FC00
03FF40
02FF80
02FFC0
02FFD0
01FFD0
00FFE0
00FFE0
00FFE0
00FFE0
00FFE0
01FFE0
02FFD0
03FFD0
07FFC0
0BFF80
0FFF40
1FFF00
2FFF00
3FFE00
3FFC00
7FF800
3FF800
2FF400
0FE000
ENDCHAR
STARTCHAR two
ENCODING 50
SWIDTH 650 0
DWIDTH 23 0
BBX 24 26 2 0
BITMAP
06BFFFA00000
3FFFFFFE0000
7FFFFFFF8000
7FFFFFFFD000
7FFFFFFFF800
7FFFFFFFFC00
2FFA55FFFD00
014002FFFE00
00000BFFFC00
00002FFFF400
0001FFFFE000
0007FFFF8000
002FFFFD0000
00BFFFF40000
01FFFF800000
07FFFE000000
1FFFF4000000
3FFFD0000590
BFFF401AFFF4
BFFFAFFFFFF8
BFFFFFFFFFFD
BFFFFFFFFFFD
BFFFFFFFFFF8
7FFFFFFFFE40
3FFFFFFA4000
06FFA5000000
ENDCHAR
STARTCHAR three
ENCODING 51
SWIDTH 561 0
DWIDTH 20 0
BBX 21 26 -1 0
BITMAP
000016AAA400
006BFFFFFC00
0FFFFFFFFE00
3FFFFFFFFF40
3FFFFFFFFF80
7FFFFFFFFF80
7FFFFFFFFF40
3FFFFFFFFD00
1A5FFFFFE000
001FFFFF4000
002FFFF80000
003FFFFD0000
003FFFFF8000
002FFFFFE000
000BFFFFF400
0000BFFFFC00
000006FFFD00
0000002FFE00
0000007FFE00
02556BFFFE00
07FFFFFFFD00
0BFFFFFFF400
0FFFFFFFD000
1FFFFFFE4000
0FFFFFA00000
06AA94000000
ENDCHAR
STARTCHAR four
ENCODING 52
SWIDTH 582 0
DWIDTH 21 0
BBX 20 28 1 -1
BITMAP
0000007400
000000FC00
000001FE00
040001FF00
2E0001FF40
3F8002FF40
7FC002FF00
3FD002FF00
3FF003FF00
2FF003FF54
2FF407FFF8
1FFFFFFFFE
1FFFFFFFFE
0FFFFFFFFD
0FFFFFFFF8
03FFFFFE40
01BFFFF400
0001BFE000
0000FFD000
0000FFC000
0001FF8000
0001FF4000
0001FF4000
0001FF8000
0000FFD000
0000BFE000
00007FE000
00002FD000
ENDCHAR
STARTCHAR five
ENCODING 53
SWIDTH 580 0
DWIDTH 21 0
BBX 22 26 2 0
BITMAP
000180000000
001FF0000000
01BFFD56AE40
07FFFFFFFF80
1FFFFFFFFFD0
7FFFFFFFFFE0
FFFFFFFFFFE0
FFFFFFFFFF90
FFFFFFFA5400
FFFFE5000000
FFFFC0000000
BFFFF8000000
7FFFFE000000
1FFFFF800000
02FFFFD00000
001BFFF40000
0000BFF80000
00001FFD0000
00001FFE0000
6A56BFFE0000
FFFFFFFE0000
FFFFFFFD0000
BFFFFFF80000
3FFFFFF00000
1FFFFF800000
015A94000000
ENDCHAR
STARTCHAR six
ENCODING 54
SWIDTH 500 0
DWIDTH 18 0
BBX 18 27 -1 -1
BITMAP
00001BE000
00007FF400
0001FFF400
0003FFFC00
000BFFFD00
000FFFF800
002FFF4000
007FFD0000
00BFF40000
00FFE00000
01FFD00000
03FF800000
07FF405400
0FFF0BFE00
0FFD7FFF40
1FFCFFFFC0
2FFAFFFFE0
3FF7FFFFF0
7FF3FFFFF0
7FE7FFFFF0
7FFFFFFFD0
7FFFFFFF80
7FFFFFFE00
3FFFFFF400
2FFFFF8000
0BFF940000
0054000000
ENDCHAR
STARTCHAR seven
ENCODING 55
SWIDTH 576 0
DWIDTH 21 0
BBX 23 26 0 0
BITMAP
06FFA5000000
2FFFFFE40000
7FFFFFFE0000
7FFFFFFF4000
BFFFFFFFD000
7FFFFFFFE000
2A96AFFFE000
000001FFF000
0000007FE000
0000007FE000
000000BFE000
000000FFF950
0015BFFFFFF4
02FFFFFFFFF0
07FFFFFFFFF4
0BFFFFFFFFE0
0BFFFFFFE940
03FFFFF80000
00AAFFF00000
0003FFD00000
0007FF800000
000BFF000000
000FFE000000
000FFC000000
000BF8000000
000AF4000000
ENDCHAR
STARTCHAR eight
ENCODING 56
SWIDTH 537 0
DWIDTH 19 0
BBX 19 28 2 -1
BITMAP
0001400000
006FF90280
02FFFF07E0
0BFFFF4FF0
2FFFFFCFF4
3FFFFFDBF8
7FFEFFD7FC
BFE07FDFFC
BFD02FFFFC
BFE007FFF4
BFF87FFFE0
3FFFFFFF80
2FFFFFFD00
0FFFFFF400
0BFFFF4000
0FFFFD0000
1FFFFD0000
3FFFFE0000
3FE7FF4000
3FD1FF8000
3FD0BFC000
3FFAFFC000
3FFFFFC000
1FFFFF8000
0FFFFF4000
07FFFE0000
01BFF40000
0005400000
ENDCHAR
STARTCHAR nine
ENCODING 57
SWIDTH 529 0
DWIDTH 19 0
BBX 19 28 1 -1
BITMAP
0000010000
0000BFD000
000BFFF400
007FFFFD00
01FFFFFE00
07FFFFFF40
0FFFFBFFC0
2FFF90FFC0
3FFD16FFD0
7FFFFFFFF0
BFFFFFFFF4
BFFFFFFFF0
7FFFFFFFD0
3FFFFFFF40
1BFFABFF00
005003FD00
000007FD00
00000BFC00
00000FFC00
00000FF800
00001FF400
00001FF400
00002FF000
00002FF000
00002FE000
00003FD000
00002FC000
0000094000
ENDCHAR
STARTCHAR colon
ENCODING 58
SWIDTH 241 0
DWIDTH 9 0
BBX 8 17 -1 -1
BITMAP
0190
07FD
0BFF
0FFF
0BFF
03FE
02E4
0000
0000
0000
0500
2FE0
BFF4
FFF0
BFE0
7FD0
1F40
ENDCHAR
STARTCHAR semicolon
ENCODING 59
SWIDTH 245 0
DWIDTH 9 0
BBX 11 23 -3 -7
BITMAP
001500
007FD0
00BFF0
00BFF0
00BFF4
003FE0
001F40
000000
000000
000000
000000
01E400
03FF00
03FF40
07FF80
0BFF40
0FFF00
1FFE00
3FFC00
BFF400
BFE000
1F8000
010000
ENDCHAR
STARTCHAR less
ENCODING 60
SWIDTH 625 0
DWIDTH 23 0
BBX 22 16 0 1
BITMAP
000000006F90
00000006FFF0
0000006FFFF0
00001BFFFFE0
0006FFFFFE40
05BFFFFFE400
7FFFFFFE0000
FFFFFF900000
BFFFF4000000
7FFFF9000000
1BFFFFE40000
01FFFFFF4000
001BFFFFD000
0000BFFFF400
000005BFFC00
00000006F800
ENDCHAR
STARTCHAR equal
ENCODING 61
SWIDTH 586 0
DWIDTH 21 0
BBX 20 13 0 3
BITMAP
016BFFFFE4
0BFFFFFFFD
0FFFFFFFFF
1FFFFFFFFD
0FFEAAA540
0140000000
0000000000
015AAFFF40
7FFFFFFFE0
BFFFFFFFE0
BFFFFFFF80
7FFA995400
1500000000
ENDCHAR
STARTCHAR greater
ENCODING 62
SWIDTH 634 0
DWIDTH 23 0
BBX 23 16 -2 1
BITMAP
00BE40000000
01FFFA400000
007FFFF40000
002FFFFF9000
0007FFFFF900
00007FFFFF80
000006FFFFF0
000000BFFFF8
00001BFFFFF8
0006FFFFFFF0
007FFFFFE440
07FFFFF90000
7FFFFE400000
7FFFE4000000
7FFE00000000
1FE000000000
ENDCHAR
STARTCHAR question
ENCODING 63
SWIDTH 556 0
DWIDTH 20 0
BBX 20 28 2 -1
BITMAP
0015540000
01FFFFE900
07FFFFFFE4
1FFFFFFFFE
3FFFFFFFFF
2FFFFFFFFF
2FFFFFFFFF
064005BFFF
000000BFFE
000007FFFD
00002FFFF8
0001FFFFE0
000BFFFF80
002FFFF400
00BFFF9000
02FFFE0000
03FFE00000
07FF000000
03FC000000
0000000000
0000000000
1500000000
BF80000000
FFE0000000
FFE0000000
FFE0000000
7FD0000000
2E00000000
ENDCHAR
STARTCHAR at
ENCODING 64
SWIDTH 732 0
DWIDTH 26 0
BBX 27 28 -1 -1
BITMAP
00000006640000
0000001FFE0000
0000001FFFD000
0000002FFFF400
0000007FFFF800
000002FFFFFD00
00001FFF82FF00
00007FFD00FF80
0002FFE0007FC0
000BFF800F2FE0
007FFD02FF5FF4
01FFF41FFF4BF8
07FFD1BFFF07F8
0BFF47FFFE07F8
1FFE1FFEFE07F8
3FF87FF5FD0BF4
7FF0BFC1FD0BF4
7FE0FFEAFF6FE0
3FC0BFFFFFFF80
3F807FFFFFFE00
3F401FFFFFF400
2FE401AA500000
1FFE0000000000
0BFFE95556D000
01FFFFFFFFF000
002FFFFFFFF800
0006FFFFFFF800
000005AAAA9000
ENDCHAR
STARTCHAR A
ENCODING 65
SWIDTH 702 0
DWIDTH 25 0
BBX 26 27 -1 -1
BITMAP
00000006400000
0000001FF90000
0000003FFE0000
000000BFFE0000
00002BFFFF0000
0000BFFFFF0000
0001FFFFFF4000
0003FFFFFF4000
0007FFFFFF8000
000FFFFBFFC000
001FFFD3FFC000
002FFF82FFD000
007FFF02FFE000
00BFFD01FFFF40
01FFF816FFFFE0
02FFFFFFFFFFF0
03FFFFFFFFFFD0
0BFFFFFFFFFE40
0FFFAFFFFFFD00
2FFF1FFFBFFD00
3FFD06501FFE00
7FFC00002FFE00
BFF80002FFFD00
7FF40001FFF800
3FF40000BFF000
1F8000007F8000
00000000040000
ENDCHAR
STARTCHAR B
ENCODING 66
SWIDTH 686 0
DWIDTH 25 0
BBX 25 28 -1 -1
BITMAP
00000005400000
00016FFFFD0000
01BFFFFFFF8000
0BFFFFFFFFF000
7FFFFFFFFFF800
FFFFFFFFFFFD00
BFFFFE40BFFD00
7FFFE002FFFD00
1FFBF40BFFF800
06E7FEBFFFF400
0007FFFFFFD000
000BFFFFFF4000
000FFFFFFE0000
001FFFFFFE0000
002FFFFFFFD000
002FFFFFFFF400
003FFE5007FD00
007FFC0002FF00
00BFF4000BFF40
01FFF0007FFF40
01FFE007FFFF80
03FFD1BFFFFF00
03FFFFFFFFFD00
07FFFFFFFFF400
03FFFFFFFF4000
02FFFFFFF40000
00FEFFF9400000
00282A90000000
ENDCHAR
STARTCHAR C
ENCODING 67
SWIDTH 611 0
DWIDTH 22 0
BBX 22 26 0 0
BITMAP
00000002A400
0000001FFD00
000001BFFF80
00001BFFFFD0
0000BFFFFFD0
000BFFFFFFC0
002FFFFFFF40
00BFFFFFE400
03FFFFF90000
0BFFFFD00000
2FFFFE000000
7FFFE4000000
BFFF40000000
FFFD00000000
FFF400000000
FFE000000000
BFD000000000
BFD000000000
7FF400000000
3FFFA5540000
2FFFFFFFF800
0FFFFFFFFE00
07FFFFFFFF00
00BFFFFFFF40
001BFFFFFD00
00006BFEA000
ENDCHAR
STARTCHAR D
ENCODING 68
SWIDTH 588 0
DWIDTH 21 0
BBX 21 27 0 -1
BITMAP
079000000000
0BF900000000
0BFFE4000000
07FFFF400000
07FFFFE00000
0FFFFFF80000
0FFAFFFF4000
0BF86FFFD000
07FC01FFF400
07FC001FFC00
07FC000BFE00
07FD0001FF00
07FD0000FF40
07FD0001FF80
0BFD0007FF80
0FFC002FFF40
1FFC06FFFF00
1FF81FFFFD00
2FFEFFFFF400
3FFFFFFFD000
7FFFFFFE0000
7FFFFFF40000
7FFFFF400000
3FFFE4000000
2FFE40000000
1FE000000000
010000000000
ENDCHAR
STARTCHAR E
ENCODING 69
SWIDTH 626 0
DWIDTH 23 0
BBX 24 27 0 -1
BITMAP
000000016A90
000006BFFFF8
0006FFFFFFFD
01BFFFFFFFFD
07FFFFFFFFF8
07FFFFFFFF90
07FFFFFF9400
03FFFFA40000
02FFF4000000
01FFF0054000
00FFFFFFC000
01FFFFFFF400
03FFFFFFFD00
07FFFFFFFD00
0BFFFFFFE000
1FFFFFFE4000
3FFF04000000
7FFD00000000
BFFC00001400
BFF40156FD00
BFFFFFFFFF80
7FFFFFFFFFD0
7FFFFFFFFFC0
3FFFFFFFFF40
1FFFFFFFF800
06FFFFE94000
001540000000
ENDCHAR
STARTCHAR F
ENCODING 70
SWIDTH 575 0
DWIDTH 21 0
BBX 27 28 -1 -1
BITMAP
00000000015400
00000006BFFF40
000006BFFFFFD0
0001BFFFFFFFF4
006FFFFFFFFFF8
02FFFFFFFFFFE4
03FFFFFFE54000
03FFFFE4000000
01FFFF40000000
00BFFF40000000
001FFF00000000
000FFE00000000
001FFD00000000
063FFD5ABD0000
3FFFFFFFFF0000
BFFFFFFFFF8000
BFFFFFFFFF0000
7FFFFFFFFD0000
2FFFFFFE940000
0BFFE900000000
0BFF4000000000
0FFE0000000000
0FFD0000000000
1FFC0000000000
0FFC0000000000
0BFC0000000000
02F40000000000
00100000000000
ENDCHAR
STARTCHAR G
ENCODING 71
SWIDTH 789 0
DWIDTH 28 0
BBX 30 26 0 0
BITMAP
000000007D000000
00000002FF800000
0000001FFFF00000
000001BFFFF40000
00000BFFFFF40000
00002FFFFFF40000
0001FFFFFF400000
0007FFFFF4000000
001FFFFF80000000
007FFFF800000000
01FFFFD001800000
03FFFF400BF40000
0BFFFC002FFF4000
1FFFE0001FFFF400
3FFFC0001FFFFD00
BFFF00000BFFFF80
FFFD000007FFFFE0
FFF4000007FFFFE0
BFE00006BFFFFFE0
BFE556FFFFFFFF80
7FFFFFFFFFFFFE00
3FFFFFFFFFFFF400
2FFFFFFFFFFE4000
0FFFFFFFFE500000
03FFFFFF90000000
006FEA5000000000
ENDCHAR
STARTCHAR H
ENCODING 72
SWIDTH 695 0
DWIDTH 25 0
BBX 26 28 -1 -1
BITMAP
00000000001000
0001000000B400
001E000001FC00
002F400002FD00
003FC00002FE00
007FE00002FF80
00BFF40003FFC0
00BFF80007FFC0
00BFF80007FFD0
00FFF40007FFD0
00FFF40007FFD0
00FFF0000BFFD0
01FFF0000BFFC0
02FFE0001FFF80
02FFE01AFFFF80
03FFFBFFFFFF40
07FFFFFFFFFF40
0BFFFFFFFFFF00
0BFFFFFFFFFD00
0FFFFFFFFFFC00
2FFFFFE4FFF800
2FFFFD00FFF400
3FFFD001FFF800
7FFF8000FFF800
2FFF4000BFF400
1FFE00003FE000
0BF800001E4000
01500000000000
ENDCHAR
STARTCHAR I
ENCODING 73
SWIDTH 515 0
DWIDTH 19 0
BBX 26 27 -2 -1
BITMAP
00015BFFFFF900
000BFFFFFFFF00
000FFFFFFFFFC0
000BFFFFFFFFD0
000BFFFFFFFE40
0003FFFFE54000
000050FFD00000
000001FFD00000
000002FFC00000
000003FF800000
000007FF400000
000007FF000000
00000BFE000000
00001FFD000000
00002FFD000000
00003FFC000000
00007FF8000000
0000BFF0000000
0001FFE0000000
0002FFD0000000
015BFFFF400000
3FFFFFFFD00000
7FFFFFFFF00000
3FFFFFFFE00000
2FFFFFFF800000
1FFA5500000000
05400000000000
ENDCHAR
STARTCHAR J
ENCODING 74
SWIDTH 668 0
DWIDTH 24 0
BBX 30 26 -1 0
BITMAP
000000055A565400
0016BFFFFFFFFF00
00BFFFFFFFFFFF80
02FFFFFFFFFFFFD0
02FFFFFFFFFFFFE0
01FFFFFFFFFFFFD0
00FFFE96FFE45500
002E4002FFD00000
00000002FFD00000
00000003FFC00000
00000003FF800000
00000007FF400000
0000000BFF400000
0000000FFF000000
0000001FFE000000
0000002FFD000000
0000003FFC000000
0000007FF8000000
000001FFF4000000
2E9007FFF0000000
7FFFBFFFE0000000
BFFFFFFFD0000000
BFFFFFFF40000000
3FFFFFFD00000000
1FFFFFF400000000
0106BA4000000000
ENDCHAR
STARTCHAR K
ENCODING 75
SWIDTH 776 0
DWIDTH 28 0
BBX 29 27 0 -1
BITMAP
0001E80000000000
0003FE4000060000
0007FFC0002F8000
000FFFD001FFF000
002FFFC00BFFFC00
003FFF407FFFFC00
003FFF42FFFFF400
007FFD0BFFFFD000
00FFFC7FFFFE0000
01FFFAFFFFF40000
02FFFFFFFF800000
03FFFFFFFD000000
07FFFFFFF4000000
0BFFFFFF80000000
0FFFFFFF00000000
1FFFFFFF40000000
2FFFFFFFD0000000
2FFFFFFFF9400000
3FFFFEFFFFFFFD00
7FFFF43FFFFFFF40
BFFFD00BFFFFFF80
7FFF8002FFFFFF40
3FFF00006FFFFE00
2FFD000002FFF800
1FF4000000054000
0BE0000000000000
0140000000000000
ENDCHAR
STARTCHAR L
ENCODING 76
SWIDTH 632 0
DWIDTH 23 0
BBX 22 27 0 -1
BITMAP
000B94000000
000FFD000000
001FFF000000
002FFF400000
003FFF000000
007FFE000000
00BFFD000000
00FFF8000000
01FFF4000000
02FFF0000000
03FFE0000000
07FFD0000000
0BFFC0000000
1FFF80000000
1FFF40000000
2FFF00000000
3FFD00000000
7FFC00000000
BFFC00154000
BFFD6FFFF800
BFFFFFFFFF80
7FFFFFFFFFE0
3FFFFFFFFFE0
2FFFFFFFFFF0
0FFFFFFEBF90
07FFE4000000
005500000000
ENDCHAR
STARTCHAR M
ENCODING 77
SWIDTH 973 0
DWIDTH 35 0
BBX 35 28 0 -1
BITMAP
000001000000000000
00001F800000001400
00007FE4000000BE00
0000FFFD000001FF80
0002FFFF000007FFE0
0003FFFF40001FFFF4
000BFFFF80007FFFF8
001FFFFF4001FFFFF4
002FFFFF800BFFFFF4
007FFFFF806FFFFFF0
00BFFFFF96FFFFFFE0
00FFFFFFFFFFFFFFE0
02FFFFFFFFFFFFFFE0
03FFFFFFFFFFFBFFE0
07FFFFFFFFFFE3FFD0
0FFFDBFFFFFF43FFC0
1FFFC3FFFFF807FFC0
2FFF81FFFF800BFFC0
7FFF401BA4000FFFC0
BFFF000000000FFF80
BFFD000000000FFF40
BFF8000000001FFF00
BFF8000000001FFE00
BFF0000000000FFD00
7FE0000000000FF800
3FD00000000007E400
2F8000000000014000
050000000000000000
ENDCHAR
STARTCHAR N
ENCODING 78
SWIDTH 684 0
DWIDTH 25 0
BBX 27 26 -1 0
BITMAP
00002900003800
00003F80007F40
0000BFE000BFE0
0000FFF800FFF0
0001FFFC01FFF4
0003FFFC02FFF4
0007FFFC02FFF0
000FFFF803FFD0
001FFFF403FFC0
003FFFF007FF80
007FFFF00BFF80
00FFFFF00BFF40
01FFFFF00FFF40
02FFFFF02FFF00
07FFFFF03FFF00
0BFFFFF0BFFF00
1FFFFFF2FFFE00
2FFFFFFFFFFD00
7FFFDFFFFFFC00
7FFF8BFFFFF800
3FFF03FFFFE000
3FFE01FFFFD000
2FFD00BFFF4000
0FFC002FFE0000
07F80007F40000
02D00000400000
ENDCHAR
STARTCHAR O
ENCODING 79
SWIDTH 744 0
DWIDTH 27 0
BBX 26 28 0 -1
BITMAP
00000000A40000
00000006FC0000
0000002FFF0000
000000BFFFC000
000002FFFFD000
00001FFFFFC000
00007FFFFF8000
0001FFFFFFC000
000BFFFFFFE000
002FFFFFFFF000
007FFFE53FF800
00FFFF401FFC00
02FFFD000FFE00
0BFFF00007FF40
0FFFC00002FF80
2FFF400001FF80
3FFE000000FFC0
7FFC000001FFD0
7FF400000BFFD0
BFF000007FFFD0
BFF4005BFFFFC0
BFFFFFFFFFFF80
7FFFFFFFFFFE00
2FFFFFFFFFF800
0FFFFFFFFF9000
07FFFFFFF40000
00BFFFE9400000
00015500000000
ENDCHAR
STARTCHAR P
ENCODING 80
SWIDTH 639 0
DWIDTH 23 0
BBX 23 28 1 -1
BITMAP
000000550000
00001FFFF800
0001FFFFFF40
0007FFFFFFC0
000FFFFFFFE0
002FFFFFFFF0
003FFFFFFFF4
00BFFFABFFF8
00FFF4007FFC
01FFD0007FFC
0BFFC01BFFFC
1FFFDAFFFFFC
3FFFFFFFFFF8
7FFFFFFFFFF0
7FFFFFFFFF80
BFFFFFFFFD00
7FFFFFFF9000
3FFFFFE40000
2FFF94000000
2FFD00000000
2FFD00000000
3FFD00000000
7FFC00000000
7FFC00000000
BFF800000000
3FF400000000
2FF000000000
054000000000
ENDCHAR
STARTCHAR Q
ENCODING 81
SWIDTH 744 0
DWIDTH 27 0
BBX 26 30 0 -3
BITMAP
00000004000000
0000002FF80000
0000003FFE0000
0000003FFFC000
000000BFFFF000
000002FFFFF000
00000BFFFFF800
00007FFFFFFD00
0001FFFFFFFF00
000BFFFF47FF80
002FFFF802FFC0
00FFFFD000FFD0
03FFFE00007FE0
0BFFF800007FF0
2FFFE0BF807FF0
3FFF80FFE0FFE0
BFFE00BFF7FFE0
FFF8002FFFFFE0
FFF4000FFFFFD0
FFE0001BFFFF40
BFC006FFFFFE00
BFE6FFFFFFF800
BFFFFFFFFFF800
BFFFFFFFFFFC00
3FFFFFFFFFFD00
0BFFFFFE4FFE00
01FFFE5007FF00
0015400003FE00
0000000001F800
00000000001000
ENDCHAR
STARTCHAR R
ENCODING 82
SWIDTH 646 0
DWIDTH 23 0
BBX 24 29 0 -2
BITMAP
000000100000
000001FD0000
00000BFF4000
00002FFFD000
00007FFFF400
0000FFFFFC00
0002FFFFFE00
004BFFFFFF00
02FFFF5FFF40
03FFFD07FFC0
03FFF403FFC0
07FFE01BFFD0
07FFD1BFFFC0
0BFFFFFFFF80
0FFFFFFFFF00
1FFFFFFFF800
1FFFFFFF9000
2FFFFFE40000
2FFFFE000000
3FFFFE400000
3FFFFFE00000
7FFFFFFE9000
7FFBFFFFFFA4
7FF4FFFFFFF8
3FF02FFFFFFC
2FE002FFFFFD
1F80001BFFFC
000000006FF8
000000000140
ENDCHAR
STARTCHAR S
ENCODING 83
SWIDTH 576 0
DWIDTH 21 0
BBX 25 28 0 -1
BITMAP
00000000150000
0000006BFFF400
00001BFFFFFC00
0006FFFFFFFE00
007FFFFFFFFF00
07FFFFFFFFFF80
2FFFFFFFFFFF40
7FFFFF94141400
7FFFF800000000
BFFFFE40000000
7FFFFFE4000000
7FFFFFFC000000
1FFFFFFE000000
01AFFFFF400000
00005BFF800000
0000007FE00000
0000001FE00000
0000007FF00000
000000FFF00000
00000BFFE00000
0001BFFFC00000
056FFFFF400000
0FFFFFFE000000
0FFFFFF8000000
0FFFFFD0000000
0BFFFD00000000
07FF9000000000
01540000000000
ENDCHAR
STARTCHAR T
ENCODING 84
SWIDTH 607 0
DWIDTH 22 0
BBX 28 28 0 -1
BITMAP
00000000000540
000001D5AFFFF0
155AAFFFFFFFFC
BFFFFFFFFFFFFE
FFFFFFFFFFFFFF
BFFFFFFFFFFFFE
7FFFFFFFFFAA90
3FFFFFFF500000
0AA96FFE000000
00002FFD000000
00007FFC000000
0000BFF8000000
0001FFF4000000
0002FFE0000000
0003FFD0000000
0007FFC0000000
000BFF40000000
000FFF00000000
001FFE00000000
002FFC00000000
002FF800000000
002FF400000000
002FF400000000
002FF400000000
001FFD00000000
000BFE00000000
0006FE00000000
00006400000000
ENDCHAR
STARTCHAR U
ENCODING 85
SWIDTH 695 0
DWIDTH 25 0
BBX 25 26 1 0
BITMAP
00000000007400
0000000000FD00
0000000000FE00
07C0000002FF00
0FE0000002FF40
0FF8000002FF80
1FFC000003FF80
1FFD000007FFC0
2FFE00000BFF80
2FFE00000FFF40
3FFE00001FFF40
3FFD00003FFF00
3FFC0000BFFE00
7FFC0001FFFC00
7FFC0007FFF400
3FFC002FFFF000
3FFC01FFFFD000
3FFD6FFFFF4000
3FFFFFFFFD0000
2FFFFFFFF40000
0FFFFFFFE00000
0FFFFFFF800000
0BFFFFFE000000
03FFFFF4000000
01FFFE40000000
001AA400000000
ENDCHAR
STARTCHAR V
ENCODING 86
SWIDTH 583 0
DWIDTH 21 0
BBX 22 27 2 -1
BITMAP
1D0000002E80
7F000000BFC0
BF800002FFD0
BFD00007FFE0
BFF0001FFFD0
BFF4003FFFC0
7FF400BFFF40
7FF801FFFE00
7FF803FFF800
7FF80BFFF000
7FFC1FFFD000
7FFC3FFF4000
7FFCBFFE0000
3FFEFFFC0000
2FFFFFF40000
2FFFFFE00000
2FFFFFC00000
1FFFFF400000
1FFFFE000000
0FFFFD000000
0BFFF8000000
0BFFE0000000
07FFD0000000
03FFD0000000
01FF80000000
00BF00000000
001400000000
ENDCHAR
STARTCHAR W
ENCODING 87
SWIDTH 994 0
DWIDTH 36 0
BBX 38 26 0 0
BITMAP
00010000000000003800
000BC00000000000BE00
001FF00000800000FF40
003FFC0002F40002FFC0
007FFC0007FD0003FFD0
00FFF8000FFF0007FFD0
01FFF8002FFF400BFFD0
02FFF4007FFF000FFFC0
03FFF000FFFF002FFF40
07FFE001FFFE003FFF00
0BFFC003FFFE007FFE00
0BFF800BFFFD00BFFC00
0FFF801FFFFC01FFF800
1FFF403FFFFC02FFF400
1FFF00BFFFF807FFE000
2FFE01FFFFF80FFFD000
2FFE07FFFFF82FFFC000
3FFD2FFFFFFDFFFF4000
7FFDBFFFFFFFFFFF0000
3FFFFFFFD7FFFFFD0000
2FFFFFFF43FFFFF80000
1FFFFFFC01FFFFF40000
0BFFFFE000FFFFD00000
07FFFF40007FFF800000
01FFF900002FFE000000
001A4000000BF4000000
ENDCHAR
STARTCHAR X
ENCODING 88
SWIDTH 623 0
DWIDTH 22 0
BBX 26 27 -1 -1
BITMAP
00640000000000
00BF4000002F00
00FFD00001FF80
00FFF4000BFFC0
00FFFD007FFFE0
00FFFF42FFFFD0
007FFF9FFFFF80
002FFFFFFFFD00
000FFFFFFFE000
0007FFFFFF4000
0002FFFFF80000
0000FFFFE00000
0002FFFF400000
000BFFFF400000
002FFFFFC00000
00BFFFFFE00000
02FFFFFFF40000
07FFFEFFFC0000
0FFFF4BFFE0000
2FFFC02FFF4000
3FFF001FFF8000
7FFD000BFFC000
BFF40003FFC000
BFE00002FFC000
7FD00001FF4000
2FC000007E0000
0B400000000000
ENDCHAR
STARTCHAR Y
ENCODING 89
SWIDTH 493 0
DWIDTH 18 0
BBX 21 28 1 -1
BITMAP
040000005000
2E400002F800
3FE0000FFE00
3FF8003FFF80
2FFC00BFFF80
2FFC02FFFF00
2FFD07FFF800
1FFE0FFFF000
1FFE2FFFD000
0FFFBFFF4000
0FFFFFFD0000
0BFFFFF80000
07FFFFF00000
02FFFFD00000
01FFFF800000
00BFFF400000
00BFFE000000
01FFFC000000
02FFF4000000
07FFE0000000
0BFFD0000000
1FFF80000000
2FFF40000000
3FFE00000000
7FFC00000000
7FF800000000
2FF000000000
0BD000000000
ENDCHAR
STARTCHAR Z
ENCODING 90
SWIDTH 664 0
DWIDTH 24 0
BBX 26 28 -1 -2
BITMAP
0001AAAAAA6900
000BFFFFFFFF80
000BFFFFFFFFD0
000BFFFFFFFFF0
0007FFFFFFFFF0
0002FFFFFFFFE0
0000A555FFFFD0
00000007FFFF40
0000001FFFF800
000000BFFFD000
000006FFFF4000
00002FFFFD0000
0001FFFFF40000
000BFFFFD00000
006FFFFE000000
01FFFFF4000000
0BFFFF80000000
1FFFFD00000000
2FFFF40006D000
3FFF8006BFF400
7FFF41BFFFFD00
7FFFFFFFFFFD00
7FFFFFFFFFF800
2FFFFFFFFF9000
1FFFFFFFF40000
0BFFFFE9400000
01BFFA40000000
00154000000000
ENDCHAR
STARTCHAR bracketleft
ENCODING 91
SWIDTH 387 0
DWIDTH 14 0
BBX 27 39 -1 -6
BITMAP
00000015555400
00006AFFFFFF80
0000FFFFFFFFE0
0000FFFFFFFFF4
0000BFFFFFFFF4
0000FFFFFFEA40
0000FFD0000000
0001FFC0000000
0002FF80000000
0002FF80000000
0003FF40000000
0007FF00000000
000BFE00000000
000BFE00000000
000FFD00000000
001FFC00000000
002FF800000000
003FF800000000
003FF400000000
007FF000000000
00BFE000000000
00FFE000000000
01FFD000000000
02FFC000000000
02FFC000000000
03FF8000000000
07FF4000000000
0BFF0000000000
0FFE0000000000
1FFD0000000000
2FFC0000000000
3FF80000000000
7FF45550000000
7FFFFFFD000000
FFFFFFFF400000
FFFFFFFF400000
BFFFFFFF000000
7FFFAE54000000
2E900000000000
ENDCHAR
STARTCHAR backslash
ENCODING 92
SWIDTH 352 0
DWIDTH 13 0
BBX 9 28 2 -1
BITMAP
500000
BD0000
BF4000
BFC000
BFC000
7FD000
7FD000
3FD000
3FE000
2FE000
1FF000
1FF000
0FF400
0FF400
0BF800
0BF800
07FC00
07FD00
03FD00
03FE00
02FE00
02FE00
02FF00
02FF00
02FF40
01FF40
00FF00
006900
ENDCHAR
STARTCHAR bracketright
ENCODING 93
SWIDTH 403 0
DWIDTH 15 0
BBX 25 39 -10 -6
BITMAP
00000055AA9000
00006BFFFFFE00
0000BFFFFFFF40
00007FFFFFFFC0
00007FFFFFFF80
00003FFEAFFF80
00001A4003FF40
0000000007FF00
0000000007FF00
000000000BFE00
000000000FFD00
000000000FFC00
000000001FFC00
000000002FF800
000000003FF400
000000007FF000
00000000BFF000
00000000BFE000
00000000FFD000
00000001FFC000
00000002FF8000
00000003FF8000
00000003FF4000
00000007FF0000
0000000BFF0000
0000000FFE0000
0000001FFD0000
0000002FFC0000
0000003FF80000
0000007FF40000
000000BFF00000
000000FFE00000
000055FFD00000
16AFFFFFD00000
FFFFFFFFC00000
FFFFFFFF400000
BFFFFFFF000000
7FFFAE54000000
2E900000000000
ENDCHAR
STARTCHAR asciicircum
ENCODING 94
SWIDTH 518 0
DWIDTH 19 0
BBX 17 21 0 6
BITMAP
0000028000
00000FE000
00001FF400
00001FF800
00007FFC00
0000FFFD00
0001FFFD00
0007FFFE00
000BFFFE00
001FFFFF00
003FFAFF00
00BFE2FF40
02FFD2FF40
07FF81FF40
1FFF01FF40
3FFD01FF40
BFF800FF40
FFE000BF40
BFC0002F40
7F00001F40
1800000500
ENDCHAR
STARTCHAR underscore
ENCODING 95
SWIDTH 708 0
DWIDTH 26 0
BBX 30 7 -4 -2
BITMAP
0000555555400000
2AFFFFFFFFFFE400
7FFFFFFFFFFFFE40
3FFFFFFFFFFFFFD0
2FFFFFFFFFFFFF80
0BFFAAAA95555000
0040000000000000
ENDCHAR
STARTCHAR grave
ENCODING 96
SWIDTH 754 0
DWIDTH 27 0
BBX 11 11 10 16
BITMAP
060000
1F8000
3FF400
7FFD00
7FFF40
1FFFD0
07FFF0
00FFFC
002FFC
000BF8
0001B4
ENDCHAR
STARTCHAR a
ENCODING 97
SWIDTH 581 0
DWIDTH 21 0
BBX 22 23 -1 -1
BITMAP
000000400000
000001F90000
000003FF4000
00001FFF8000
0002BFFF8000
0007FFFF8000
000FFFFFC000
001FFFFFD000
003FFEBFD000
007FFC7FE000
00BFF47FF000
01FFE03FFA00
02FFC17FFFD0
07FFFFFFFFE0
0BFFFFFFFF80
1FFEFFFFFE00
2FF9FFFFFE00
3FF46947FE00
7FF0000BFE00
BFE0007FFD00
7FD0001FF800
2F40000FE000
050000014000
ENDCHAR
STARTCHAR b
ENCODING 98
SWIDTH 573 0
DWIDTH 21 0
BBX 21 23 -1 -1
BITMAP
00006AA50000
016FFFFF9000
1BFFFFFFF400
7FFFFFFFFC00
FFFFFEAFFD00
BFFF802FFE00
2FEF40BFFD00
0B9FEBFFF800
002FFFFFE000
003FFFFF8000
003FFFFF4000
007FFFFFD000
00BFFFFFF400
00FFE501FD00
01FFC001FF00
02FF8007FF40
03FF406FFF40
07FF1BFFFF40
07FFFFFFFD00
0BFFFFFFF400
07FFFFFF4000
03FFFFE40000
00A1A9000000
ENDCHAR
STARTCHAR c
ENCODING 99
SWIDTH 513 0
DWIDTH 19 0
BBX 18 23 0 -1
BITMAP
0000001400
000001BE00
00001BFF80
0000BFFFE0
0007FFFFE0
007FFFFFC0
01FFFFFE40
07FFFF9000
1FFFF80000
3FFFD00000
BFFE000000
FFF4000000
FFD0000000
FF80000000
BF40000000
BF80000000
7FE9400000
3FFFFFFD00
1FFFFFFF40
07FFFFFFC0
00FFFFFF80
0016FFFD00
0000050000
ENDCHAR
STARTCHAR d
ENCODING 100
SWIDTH 497 0
DWIDTH 18 0
BBX 18 23 0 -1
BITMAP
0500000000
0BD0000000
0FFE400000
0BFFF40000
0BFFFE0000
1FFFFFD000
0FE6FFF400
0BE01FFD00
0BF002FF00
0BF000BF80
0BF0002FC0
0BF0002FD0
0FF0007FD0
1FF006FFC0
1FF06FFF80
2FE6FFFE00
3FFFFFF800
7FFFFFE000
7FFFFE4000
7FFFE40000
3FFE000000
2FD0000000
0500000000
ENDCHAR
STARTCHAR e
ENCODING 101
SWIDTH 521 0
DWIDTH 19 0
BBX 20 23 0 -1
BITMAP
0000000150
000016BFF4
001AFFFFFE
02FFFFFFFD
0BFFFFFFF8
0BFFFFFE50
0BFFFE4000
07FF800000
02FF555000
02FFFFF800
03FFFFFE00
0BFFFFFF40
0FFFFFFD00
2FFEFF9000
3FF8000000
7FF0000000
BFE0006B00
BFFABFFFD0
7FFFFFFFE0
7FFFFFFFD0
2FFFFFFF40
0BFFFFE400
0055400000
ENDCHAR
STARTCHAR f
ENCODING 102
SWIDTH 455 0
DWIDTH 16 0
BBX 22 23 -1 -1
BITMAP
00000016AA00
000016FFFF80
0006FFFFFFE0
01BFFFFFFFF0
07FFFFFFEA90
07FFFF940000
07FFF8000000
01FFF4000000
007FF0000000
003FE0000000
007FD0150000
2FFFFFFF4000
BFFFFFFFC000
BFFFFFFF8000
7FFFFFFE0000
2FFFFA500000
0FFD00000000
1FF800000000
1FF400000000
1FF000000000
1FF000000000
0BE000000000
014000000000
ENDCHAR
STARTCHAR g
ENCODING 103
SWIDTH 652 0
DWIDTH 23 0
BBX 25 23 0 -1
BITMAP
00000005000000
0000002F900000
000001FFF40000
00001BFFF80000
0000BFFFF80000
0002FFFFE00000
001FFFFE400000
007FFFE4000000
01FFFF40000000
03FFF800A00000
0BFFE007FD0000
2FFF8007FFD000
3FFE0007FFF800
BFF80002FFFE00
FFE00001FFFF80
FFC00016FFFFC0
BF801AFFFFFF40
7FFFFFFFFFFD00
7FFFFFFFFFE000
2FFFFFFFF90000
0FFFFFFE400000
02FFFA50000000
00140000000000
ENDCHAR
STARTCHAR h
ENCODING 104
SWIDTH 582 0
DWIDTH 21 0
BBX 21 23 0 -1
BITMAP
00000000A000
00900001F000
01F00002F800
03F80002FC00
03FD0002FE00
07FF0007FF00
07FF0003FF00
07FF0007FF40
07FE0007FF40
0BFE000BFF00
0FFD000BFF00
0FFC01BFFE00
1FFEBFFFFD00
2FFFFFFFFD00
3FFFFFFFFC00
3FFFFFFFF800
BFFFF9BFF000
BFFF80BFE000
FFF800BFF000
FFF400BFF000
BFE0003FD000
7FC0001F4000
190000000000
ENDCHAR
STARTCHAR i
ENCODING 105
SWIDTH 320 0
DWIDTH 12 0
BBX 8 23 2 -1
BITMAP
0050
01F0
03F4
07FC
0BFC
0FFD
0FFE
1FFD
2FFC
3FF8
3FF4
7FF0
BFE0
BFE0
BFD0
BFD0
FFD0
BFD0
BFD0
7FD0
3FD0
2FC0
0500
ENDCHAR
STARTCHAR j
ENCODING 106
SWIDTH 534 0
DWIDTH 19 0
BBX 25 21 -1 0
BITMAP
0006AAFFFFF800
01FFFFFFFFFF00
07FFFFFFFFFF80
03FFFFFFFFFFC0
02FFFFFFFAAA40
01FD403FF00000
0000007FE00000
0000007FD00000
000000BFD00000
000000FFC00000
000001FF800000
000001FF800000
000003FF400000
000007FF000000
00000BFE000000
19002FFD000000
7FEAFFF8000000
BFFFFFF4000000
7FFFFFE0000000
3FFFFF80000000
096FF900000000
ENDCHAR
STARTCHAR k
ENCODING 107
SWIDTH 645 0
DWIDTH 23 0
BBX 24 23 0 -1
BITMAP
000140000000
000BE0000100
001FF8001B80
003FFC00BFE0
007FFC07FFF8
00BFF42FFFF4
00FFE0BFFFE0
01FFD7FFFF40
02FFEFFFF800
07FFFFFFD000
0BFFFFFE0000
0FFFFFF80000
1FFFFFD00000
2FFFFFE00000
2FFFFFF80000
3FFFFFFFA564
7FFF87FFFFFD
BFFF01FFFFFF
7FFD007FFFFE
3FF80006FFFC
2FE000006AA0
1FC000000000
060000000000
ENDCHAR
STARTCHAR l
ENCODING 108
SWIDTH 533 0
DWIDTH 19 0
BBX 19 23 0 -1
BITMAP
0019000000
003FD00000
003FF00000
007FF40000
00BFF00000
00FFE00000
01FFD00000
03FF800000
07FF400000
0BFF000000
0FFE000000
1FFD000000
2FFC000000
3FF8000000
7FF4000000
7FF0000000
BFF1AAF900
BFFFFFFF90
7FFFFFFFF0
3FFFFFFFF4
2FFFFFFFF4
0FFFE55540
01A4000000
ENDCHAR
STARTCHAR m
ENCODING 109
SWIDTH 814 0
DWIDTH 29 0
BBX 29 23 0 -1
BITMAP
0000640000000000
0001FD000001F400
0003FF800002FD00
000BFFD0000BFF00
001FFFE0002FFF80
003FFFE000BFFFC0
007FFFE003FFFF80
00FFFFF01FFFFF40
01FFFFF5BFFFFF40
03FFFFFFFFFFFF00
07FFFFFFFFFFFF00
0BFFFFFFFFE7FF00
1FFF7FFFFF4BFE00
2FFD2FFFF80BFE00
3FFC0BFF900FFE00
7FFC0154001FFD00
BFF40000001FFC00
BFE00000001FF800
BFE00000001FF400
BF800000001FF000
7F800000000FE000
3F00000000064000
1900000000000000
ENDCHAR
STARTCHAR n
ENCODING 110
SWIDTH 564 0
DWIDTH 20 0
BBX 22 22 -1 0
BITMAP
000040001400
0001F4002E00
0003FD003FD0
0007FF407FF0
000BFF80BFF0
001FFF80BFF0
002FFF40FFD0
007FFF40FFC0
00BFFE01FF80
01FFFE02FF80
02FFFE03FF40
03FFFE07FF40
0BFFFE0BFF00
0FFFFE1FFF00
2FFFFF7FFE00
3FFFFFFFFD00
7FFE7FFFFC00
7FFC3FFFF400
3FF41FFFE000
2FF007FFC000
0FE001FE0000
07D000640000
ENDCHAR
STARTCHAR o
ENCODING 111
SWIDTH 628 0
DWIDTH 23 0
BBX 22 23 0 -1
BITMAP
0000002E0000
000002FF4000
00000BFFD000
00002FFFF000
0001FFFFD000
0007FFFFE000
001FFFFFF000
007FFFFFF400
01FFFD4BFC00
03FFF407FD00
0BFF8002FF00
1FFE0000FF40
2FFC0000BF80
3FF400007FC0
7FE00000BFD0
BFD00007FFD0
BFD0007FFFC0
BFFABFFFFF80
7FFFFFFFFE00
2FFFFFFFF800
0BFFFFFF9000
02FFFFE40000
001554000000
ENDCHAR
STARTCHAR p
ENCODING 112
SWIDTH 524 0
DWIDTH 19 0
BBX 19 23 1 -1
BITMAP
00006AA400
0007FFFF40
002FFFFFD0
007FFFFFE0
00FFFFFFF4
01FFFFFFF8
02FF906FF8
07FE001FFC
2FFD06FFFC
3FFEBFFFF8
BFFFFFFFF4
BFFFFFFFE0
FFFFFFFF40
BFFFFFE400
7FFFE50000
3FF4000000
7FE0000000
BFE0000000
BFE0000000
FFD0000000
BFD0000000
7F80000000
1900000000
ENDCHAR
STARTCHAR q
ENCODING 113
SWIDTH 625 0
DWIDTH 23 0
BBX 22 24 0 -2
BITMAP
000002980000
000007FF4000
000007FFD000
00000FFFF400
00002FFFF800
0001FFFFFD00
0007FFFFFE00
002FFFE2FF40
00BFFF40BFC0
03FFF8007FD0
0BFFD0002FE0
2FFF46903FE0
7FFD0FF87FE0
BFF40BFEFFD0
FFE003FFFFD0
FFC001FFFF80
FF401BFFFF00
FF5BFFFFFD00
BFFFFFFFFC00
BFFFFFFFFD00
2FFFFFE7FE00
0BFFF902FF00
00654001FF00
000000007D00
ENDCHAR
STARTCHAR r
ENCODING 114
SWIDTH 541 0
DWIDTH 19 0
BBX 20 24 0 -2
BITMAP
0000064000
00003FE000
0000FFF800
0002FFFE00
000BFFFF40
001FFFFF80
03BFFAFFC0
07FFE0BFD0
07FF807FE0
0BFF06FFE0
0FFFAFFFD0
0FFFFFFFC0
1FFFFFFE00
2FFFFFE400
2FFFF90000
3FFFE00000
3FFFF90000
7FFFFF9400
BFEFFFFFA4
7FD3FFFFFD
3FC0BFFFFD
2F4006FFFD
0400006FFC
0000000050
ENDCHAR
STARTCHAR s
ENCODING 115
SWIDTH 463 0
DWIDTH 17 0
BBX 21 23 0 -1
BITMAP
0000006A9400
00006BFFFC00
0007FFFFFE00
01BFFFFFFF40
1FFFFFFFFF80
3FFFFFAAAA00
7FFFD0000000
BFFFE4000000
7FFFFE000000
7FFFFF800000
1BFFFFD00000
0056BFF00000
00000BF80000
000002FC0000
000007FC0000
00002FFC0000
0001FFF40000
056FFFF00000
1FFFFFC00000
1FFFFE000000
1FFFF4000000
0FFF40000000
069400000000
ENDCHAR
STARTCHAR t
ENCODING 116
SWIDTH 479 0
DWIDTH 17 0
BBX 24 23 0 -1
BITMAP
00000405AA90
0055AFFFFFF4
BFFFFFFFFFFC
FFFFFFFFFFFD
BFFFFFFFFFF8
7FFFFFFA5400
2FEAFFD00000
0001FFC00000
0002FF400000
0007FF000000
000BFE000000
000FFD000000
001FF8000000
002FF4000000
003FF0000000
007FD0000000
00BFC0000000
00BF80000000
00BF80000000
007F80000000
003FE0000000
002FE0000000
000680000000
ENDCHAR
STARTCHAR u
ENCODING 117
SWIDTH 584 0
DWIDTH 21 0
BBX 21 22 1 0
BITMAP
000000001400
000000003D00
000000003F00
07400000BF00
0FC00000BF40
1FE00000FF80
1FF00001FFC0
2FF40001FF80
2FF80003FF40
3FF40007FF40
3FF0000FFF00
7FF0002FFD00
7FF000BFFC00
7FF002FFF400
3FF02FFFE000
3FFAFFFF8000
3FFFFFFE0000
1FFFFFFC0000
1FFFFFF40000
0BFFFF800000
07FFFD000000
00BF90000000
ENDCHAR
STARTCHAR v
ENCODING 118
SWIDTH 485 0
DWIDTH 17 0
BBX 18 23 2 -1
BITMAP
1400000240
7D00000FE0
BE00003FF0
BF8000BFF0
BFC002FFE0
7FD007FFD0
7FE00FFF80
7FE02FFE00
7FE07FFC00
7FF0FFF400
7FF2FFD000
7FF7FF8000
3FFFFF0000
3FFFFD0000
2FFFFC0000
2FFFF00000
1FFFE00000
0FFFC00000
0FFF400000
07FE000000
07FE000000
01FC000000
0050000000
ENDCHAR
STARTCHAR w
ENCODING 119
SWIDTH 825 0
DWIDTH 30 0
BBX 32 23 0 -1
BITMAP
0000000000000040
001D0000000002E0
007F4000100003F8
00BFD000B8000BFC
01FFD001FE000FFD
02FFC003FF401FFD
03FF800BFF402FFC
07FF401FFF007FF8
0BFF003FFF00BFF0
0FFE00BFFE00FFE0
0FFD01FFFD01FFD0
1FFC02FFFD03FF80
2FF807FFFC0BFF40
2FF81FFFFC1FFF00
3FF47FFFFD7FFD00
3FF5FFFFFEFFFC00
7FFFFFFAFFFFF400
3FFFFFE0FFFFF000
1FFFFF80BFFFD000
0FFFFD003FFF4000
07FFE4001FFE0000
00BE40000BF40000
0000000001400000
ENDCHAR
STARTCHAR x
ENCODING 120
SWIDTH 506 0
DWIDTH 18 0
BBX 22 22 -1 -1
BITMAP
01F400000A00
02FE00007F80
02FF8002FFC0
02FFE01FFFD0
01FFF4BFFFC0
00FFFFFFFE40
003FFFFFF400
001FFFFF8000
000BFFFD0000
0007FFF40000
001FFFE00000
007FFFF40000
01FFFFF80000
07FFFFFD0000
0FFFDBFF4000
2FFF03FFC000
3FFC01FFD000
7FF000FFE000
BFD0007FE000
7F80003FD000
3F40001F8000
1E0000010000
ENDCHAR
STARTCHAR y
ENCODING 121
SWIDTH 400 0
DWIDTH 14 0
BBX 18 23 1 -1
BITMAP
1800002D00
3F8000FF40
3FE002FFD0
3FF00BFFD0
2FF02FFF80
2FF47FFD00
2FF4FFF800
1FFAFFE000
0FFFFF8000
0BFFFF0000
07FFFD0000
03FFFC0000
01FFF40000
01FFE00000
03FFD00000
07FF400000
0FFF000000
1FFD000000
3FFC000000
7FF4000000
7FE0000000
3FD0000000
1F80000000
ENDCHAR
STARTCHAR z
ENCODING 122
SWIDTH 547 0
DWIDTH 20 0
BBX 22 24 -1 -2
BITMAP
000055000400
002FFFFFFF40
002FFFFFFFC0
002FFFFFFFE0
001FFFFFFFE0
0007FAAFFFD0
0000007FFF80
000001FFFD00
00000BFFE000
00007FFF8000
0002FFFF0000
001FFFF80000
007FFFD00000
02FFFE400000
1FFFF8000000
2FFFD0005000
3FFE005BF400
7FFC1BFFFE00
7FFFFFFFFE00
7FFFFFFFF800
2FFFFFFF9000
0FFFFFE40000
06FFE4000000
005500000000
ENDCHAR
STARTCHAR braceleft
ENCODING 123
SWIDTH 448 0
DWIDTH 16 0
BBX 29 39 0 -6
BITMAP
0000000155554000
000006AFFFFFF800
00000BFFFFFFFE40
00000BFFFFFFFF80
00000BFFFFFFFF40
00000BFFFFFEA400
00000BFE40000000
00000FFD00000000
00001FFC00000000
00001FF800000000
00002FF800000000
00003FF400000000
00007FF000000000
0001BFE000000000
001BFFE000000000
05BFFFD000000000
2FFFFF8000000000
7FFFF80000000000
7FFF800000000000
3FFF800000000000
1FFFF40000000000
07FFFE0000000000
01FFFE0000000000
002FFD0000000000
002FFC0000000000
003FF80000000000
003FF40000000000
007FF40000000000
00BFF00000000000
00FFE00000000000
01FFD00000000000
02FFC00000000000
03FF855540000000
07FFFFFFD0000000
0BFFFFFFF4000000
0BFFFFFFF8000000
07FFFFFFF4000000
03FFFAE540000000
01E9000000000000
ENDCHAR
STARTCHAR bar
ENCODING 124
SWIDTH 332 0
DWIDTH 12 0
BBX 12 28 0 -1
BITMAP
000010
000078
0000FD
0001FE
0002FE
0003FF
0007FE
000BFC
000FF8
001FF4
002FF0
003FE0
007FD0
00BFC0
00FF80
01FF40
02FF00
03FE00
07FD00
0BFC00
1FF800
2FF400
7FE000
BFE000
FFC000
FFC000
BF4000
190000
ENDCHAR
STARTCHAR braceright
ENCODING 125
SWIDTH 481 0
DWIDTH 17 0
BBX 28 39 -11 -6
BITMAP
00000015AA9400
00001BFFFFFF40
00003FFFFFFFD0
00002FFFFFFFD0
00002FFFFFFFD0
00001FFFABFFC0
0000065001FFC0
0000000002FF80
0000000002FF40
0000000003FF40
0000000007FF00
000000000BFE00
000000000FFE00
000000001FFD00
000000002FFC00
000000002FFC00
000000003FFE00
000000007FFFD0
000000002FFFF4
0000000006FFFC
0000000000BFFD
0000000007FFFE
000000007FFFFD
00000002FFFFA4
00000003FFF900
00000007FFE000
0000000BFF0000
0000000FFE0000
0000001FFD0000
0000002FFC0000
0000003FF80000
0000007FF40000
000055BFF00000
15AFFFFFE00000
7FFFFFFFD00000
7FFFFFFFC00000
3FFFFFFF800000
2FFFEA95000000
0E940000000000
ENDCHAR
STARTCHAR asciitilde
ENCODING 126
SWIDTH 581 0
DWIDTH 21 0
BBX 20 8 0 7
BITMAP
0005400000
01FFF802FE
07FFFE07FD
1FFFFFAFFC
3FFBFFFFF4
BFD1FFFFD0
FF802FFF40
1000055400
ENDCHAR
STARTCHAR uni00A0
ENCODING 160
SWIDTH 370 0
DWIDTH 13 0
BBX 1 1 0 0
BITMAP
00
ENDCHAR
STARTCHAR exclamdown
ENCODING 161
SWIDTH 260 0
DWIDTH 9 0
BBX 10 28 -1 -1
BITMAP
000640
002FD0
007FE0
00BFF0
00FFF0
00BFD0
001640
000000
000000
006400
01FE00
03FF00
07FF00
07FE00
0BFE00
0FFD00
0FFD00
1FFD00
1FF800
2FF400
2FF400
3FF400
7FF000
3FE000
7FD000
3FC000
1F8000
0A0000
ENDCHAR
STARTCHAR cent
ENCODING 162
SWIDTH 488 0
DWIDTH 18 0
BBX 17 28 0 -1
BITMAP
0000010000
0000074000
00000FC000
00001FD000
00002FE000
00003FF900
00007FFF40
0001FFFF80
001FFFFF80
00BFFFFE00
03FFFF9000
0FFFF40000
2FFF900000
7FFD000000
BFE0000000
BFC0000000
7F80000000
7F80000000
3FF9550000
1FFFFFFC00
0BFFFFFF00
01FFFFFF00
00BFFFF800
01FFD50000
01FF800000
02FF400000
01FF000000
0028000000
ENDCHAR
STARTCHAR sterling
ENCODING 163
SWIDTH 586 0
DWIDTH 21 0
BBX 22 22 -1 2
BITMAP
000000150000
000002FFEA40
00001FFFFFD0
00007FFFFFE0
0000FFFFFFE0
0001FFE56FE0
0002FF800140
0003FF000000
001BFFA50000
0BFFFFFFC000
1FFFFFFFF000
0FFFFFFFF000
0BFFFFFE9000
06FFF0000000
003FE0000000
007FE001A000
05BFE5AFFC00
7FFFFFFFFD00
7FFFFFFFFD00
2FFFFFFFFD00
0FFFFFFE9000
015554000000
ENDCHAR
STARTCHAR currency
ENCODING 164
SWIDTH 509 0
DWIDTH 18 0
BBX 18 19 0 1
BITMAP
0100000000
03E06E0780
03FDFFAFD0
07FFFFFFF0
03FFFFFFD0
02FFFFFF40
02FFFFF800
07FFFFF400
0FFF0FFC00
1FFC0BFC00
2FF46FFD00
2FFFFFFD00
2FFFFFFC00
2FFFFFF400
7FFFFFF400
7FFFEFF800
BF4007F800
7E0003F400
2D00009000
ENDCHAR
STARTCHAR yen
ENCODING 165
SWIDTH 563 0
DWIDTH 20 0
BBX 21 24 0 -1
BITMAP
001000006400
00BE0002FD00
00BF8007FF40
00BFC01FFF80
007FD07FFF00
007FD0FFF800
007FE2FFF000
003FF7FFC000
003FFFFF4000
002FFFFD0000
001FFFFD0000
2BFFFFFFD000
7FFFFFFFF800
7FFFFFFFFC00
3FFFFFFFE400
1FFFFF540000
012FFD000000
003FF8000000
00BFF4000000
00FFE0000000
01FFC0000000
00FF80000000
007F00000000
000400000000
ENDCHAR
STARTCHAR brokenbar
ENCODING 166
SWIDTH 301 0
DWIDTH 11 0
BBX 13 28 -1 -1
BITMAP
00000400
00003C00
0000BE00
0000FF00
0001FF40
0002FF40
0003FF00
0007FE00
000BFD00
000FF800
001FF400
001FF000
000BD000
00014000
00000000
00000000
00900000
01FD0000
03FE0000
07FE0000
0BFD0000
1FF80000
2FF40000
7FF00000
7FE00000
7FD00000
3F800000
05000000
ENDCHAR
STARTCHAR section
ENCODING 167
SWIDTH 630 0
DWIDTH 23 0
BBX 22 33 0 -4
BITMAP
000000015400
000006BFFF40
0006FFFFFFD0
00BFFFFFFFF0
02FFFFFFFFF0
02FFFFFFFFE0
03FFFFA55A40
03FFF4000000
02FFFE000000
01FFFFE40000
00BFFFFF4000
003FFFFFE000
01FFFFFFFC00
07FFFFFFFE00
0FFFFFFFFF80
1FFFE50BFFC0
2FFD0002FFD0
1FFE416FFFC0
0FFFFFFFFF80
07FFFFFFFF00
01FFFFFFFD00
007FFFFFE000
000BFFFFF400
00007FFFFC00
000007FFFD00
000000BFFE00
06416BFFFE00
2FFFFFFFFD00
7FFFFFFFFD00
7FFFFFFFF400
2FFFFFFE4000
0BFFFE400000
015500000000
ENDCHAR
STARTCHAR dieresis
ENCODING 168
SWIDTH 754 0
DWIDTH 27 0
BBX 16 7 8 20
BITMAP
01000100
2F800FF4
BFE01FFD
FFF01FFD
FFF01FFC
BF8007F4
15000040
ENDCHAR
STARTCHAR copyright
ENCODING 169
SWIDTH 614 0
DWIDTH 22 0
BBX 22 23 0 3
BITMAP
000006FD0000
0001FFFF9000
000BFFFAF400
002FFE40BD00
00BFD0003F40
01FF002F5F80
03FD06FF8FC0
0BF82FFF4BD0
0FF0BFF907E0
1FD2FF4007F0
3FC7F40007F0
3F8BD00007F0
7F4B800007F0
7F4B90000FE0
7F47FEA01FD0
3F82FFF87F80
2FC07FF5FF00
0FD00152FD00
07F4006FF400
01FE96FFD000
006FFFFE0000
0006FFE40000
000005000000
ENDCHAR
STARTCHAR ordfeminine
ENCODING 170
SWIDTH 454 0
DWIDTH 16 0
BBX 16 16 0 7
BITMAP
0000B900
0002FF40
002BFF80
00BFFF80
00FFFFC0
02FFFFC0
03FFFFD0
0BFF7FF9
0FFFFFFF
2FFFFFFF
3FFFFFFC
BFFFFFF8
FFD5BFF8
FFC07FF4
7F402FD0
15000640
ENDCHAR
STARTCHAR guillemotleft
ENCODING 171
SWIDTH 566 0
DWIDTH 20 0
BBX 21 17 -1 -1
BITMAP
000014000500
00007D002F00
0001FD00BF40
0007FD02FF40
002FFC1BFE00
01FFF47FFC00
1BFFDAFFE000
7FFE1FFF8000
7FF82FFD0000
7FE01FF40000
3FF80FFD0000
1FFF07FF8000
07FF81FFE000
01FFD07FF000
002FE01FF800
0007F001F800
000090002400
ENDCHAR
STARTCHAR logicalnot
ENCODING 172
SWIDTH 698 0
DWIDTH 25 0
BBX 23 13 0 0
BITMAP
000000140000
1AAFFFFFFE40
BFFFFFFFFFD0
BFFFFFFFFFF4
7FFFFFFFFFF8
2FFFAAAABFF4
054000003FF0
00000000BFD0
00000000FFC0
00000002FF80
00000002FF40
00000002FF00
00000000BD00
ENDCHAR
STARTCHAR sfthyphen
ENCODING 173
SWIDTH 608 0
DWIDTH 22 0
BBX 19 7 1 6
BITMAP
0000050000
5AFFFFFE40
FFFFFFFFD0
FFFFFFFFF4
FFFFFFFFE4
7FFAAA9500
1500000000
ENDCHAR
STARTCHAR registered
ENCODING 174
SWIDTH 624 0
DWIDTH 22 0
BBX 22 23 1 3
BITMAP
000017F80000
0002FFFF4000
001FFFEBE000
007FF901F800
01FF80A0BE00
03FD03F83F00
0BF80BFE2F40
1FF06FFF1FC0
2FD1FE3F4FC0
3F82F86F4FD0
7F43FAFF0FD0
BF07FFFD0FD0
FE0BFF900FD0
FE0FFD002FC0
FF1FFF903F80
BF1FAFFFFF40
7F5F07FFFD00
2F85006FF800
0FD0007FE000
07FE5BFF8000
00BFFFFD0000
000BFF900000
000004000000
ENDCHAR
STARTCHAR macron
ENCODING 175
SWIDTH 754 0
DWIDTH 27 0
BBX 13 6 9 21
BITMAP
015AA500
7FFFFF40
BFFFFFC0
BFFFFF80
BFFFFE00
69410000
ENDCHAR
STARTCHAR degree
ENCODING 176
SWIDTH 284 0
DWIDTH 10 0
BBX 11 12 3 18
BITMAP
000100
001F40
00BF80
02FF80
0BFFD0
2FFFE0
7FDBF4
BF5BF4
FFFFF8
FFFFF4
7FFFD0
1FE900
ENDCHAR
STARTCHAR plusminus
ENCODING 177
SWIDTH 559 0
DWIDTH 20 0
BBX 21 26 -1 -1
BITMAP
000000A00000
000002F40000
000007FD0000
00000BFD0000
00000FFD0000
00001FFD0000
00002FFD0000
0056BFFFA400
07FFFFFFFF00
07FFFFFFFFC0
03FFFFFFFFC0
02FFFFFAA500
00A5FFF00000
0000FFE00000
0001FFD00000
0001FFC00000
0001FF800000
0001FF400000
000019000000
000000000000
15ABFFFA4000
BFFFFFFFD000
BFFFFFFFF800
BFFFFFFFF400
7FFFFEAA4000
1A5000000000
ENDCHAR
STARTCHAR twosuperior
ENCODING 178
SWIDTH 386 0
DWIDTH 14 0
BBX 14 14 2 12
BITMAP
05A94000
3FFFE000
7FFFF800
7FFFFD00
2FBFFE00
00BFFD00
02FFF400
0FFF8000
2FFE5A40
7FFFFFD0
7FFFFFE0
7FFFFFD0
2FFFA500
05500000
ENDCHAR
STARTCHAR threesuperior
ENCODING 179
SWIDTH 366 0
DWIDTH 13 0
BBX 13 14 2 12
BITMAP
005AA000
2FFFF800
7FFFFD00
7FFFFE00
7FFFFD00
1BFFF400
02FFF400
01FFFD00
006FFF00
02AFFF40
07FFFF00
07FFFD00
07FFE400
01550000
ENDCHAR
STARTCHAR acute
ENCODING 180
SWIDTH 754 0
DWIDTH 27 0
BBX 11 11 10 16
BITMAP
000180
0007E0
002FF8
00BFFC
02FFFC
0BFFE4
2FFF80
7FFD00
7FF400
7FD000
2D0000
ENDCHAR
STARTCHAR mu
ENCODING 181
SWIDTH 569 0
DWIDTH 21 0
BBX 21 24 -1 -4
BITMAP
000000000400
000000001E00
001000002F00
00B400003F40
00FC00003F80
01FE00007FC0
01FF0000BFC0
02FF4000FF80
02FF0001FF80
03FE0003FF40
07FE000BFE00
07FE002FFD00
0BFE00BFF800
0FFF1BFFE400
0FFFFFFF8000
1FFFFFFF0000
2FFFFFFD0000
2FFFFFF40000
3FFFFF800000
3FEBF8000000
7FD000000000
7FC000000000
7F8000000000
1A0000000000
ENDCHAR
STARTCHAR paragraph
ENCODING 182
SWIDTH 729 0
DWIDTH 26 0
BBX 27 29 2 -1
BITMAP
00000000004000
000000016BF900
000016BFFFFF80
0006FFFFFFFFE0
01BFFFFFFFFFF4
0BFFFFFFFFFFF4
3FFFFFFFFFFF90
BFFFFFFF4FFC00
BFFFEBFF0FF800
FFFE07FE1FF400
BFF40BFD2FF400
BFF40FFC3FF000
7FF91FFC3FE000
2FFFEFF87FE000
0BFFFFF87FE000
01FFFFFFFFD000
006FFFFFFFC000
0006FFFFFFF000
0000BFFFFFF800
0000FFDBFFE400
0000FFD3FF0000
0001FFC7FE0000
0001FF87FE0000
0001FF4BFE0000
0002FF07FF0000
0003FF07FF8000
0007FE03FF8000
0003FD01FF4000
000064007A0000
ENDCHAR
STARTCHAR periodcentered
ENCODING 183
SWIDTH 226 0
DWIDTH 8 0
BBX 7 6 1 10
BITMAP
1BC0
3FF0
7FF8
7FF4
3FD0
1940
ENDCHAR
STARTCHAR cedilla
ENCODING 184
SWIDTH 754 0
DWIDTH 27 0
BBX 13 13 9 -11
BITMAP
002E4000
00BF4000
02FE0000
03FD0000
07FFD000
03FFF800
00BFFE00
0001FF40
0000BFC0
2AAFFFC0
7FFFFF40
2FFFFD00
0BFE9000
ENDCHAR
STARTCHAR onesuperior
ENCODING 185
SWIDTH 206 0
DWIDTH 7 0
BBX 6 14 2 12
BITMAP
0900
1F80
2FE0
1FF0
1FF0
0FF0
1FF0
2FF0
3FE0
7FD0
BFC0
BF80
7F40
1500
ENDCHAR
STARTCHAR ordmasculine
ENCODING 186
SWIDTH 445 0
DWIDTH 16 0
BBX 16 17 0 7
BITMAP
00001400
0000BF00
0002FFC0
001FFFD0
007FFFC0
01FFFFD0
07FFFFF0
0FFFFFF4
2FFE1FFC
3FF80BFD
7FF01FFE
BFFAFFFE
BFFFFFFD
7FFFFFF8
3FFFFFE0
1FFFFE40
01AA9000
ENDCHAR
STARTCHAR guillemotright
ENCODING 187
SWIDTH 595 0
DWIDTH 21 0
BBX 21 17 -1 -1
BITMAP
040001400000
0F4003E00000
0FF403FD0000
0BFD01FF8000
07FF80FFE000
01FFE07FF800
007FF41FFE00
000FFC02FF00
001FFC07FF40
00BFFC1FFF40
03FFF8BFFE00
0FFF82FFE000
3FF90BFF4000
BFE01FF80000
BF401FE00000
BD001F800000
240009000000
ENDCHAR
STARTCHAR onequarter
ENCODING 188
SWIDTH 705 0
DWIDTH 25 0
BBX 23 28 1 -1
BITMAP
000000001000
06400000B800
0BD00002F800
0FF4000BF800
0BF8001FF800
0BF8003FF800
07F800FFF400
0BF802FFD000
0FF807FF4000
1FF40FFE0000
2FF02FF80000
3FE0BFE00000
3FD2FFC00000
2FC7FF400F40
050FFE501FC0
003FF9F82FD0
00BFE2FD3FD0
02FFC2FE3FE0
0BFF41FFFFF8
1FFD01FFFFFC
3FF800FFFFF8
7FE0007FFF90
BFD00007FD00
BFC00003FC00
FFC00007FC00
BFC00003FE00
7F400002FD00
15000000A400
ENDCHAR
STARTCHAR onehalf
ENCODING 189
SWIDTH 750 0
DWIDTH 27 0
BBX 24 28 1 -1
BITMAP
000000001000
06400000B800
0BD00002F800
0FF4000BF800
0BF8001FF800
0BF8003FF800
07F800FFF400
0BF802FFD000
0FF807FF4000
1FF40FFE0000
2FF02FF80000
3FE0BFE00000
3FD2FFC00000
2FC7FF400000
050FFE6BF900
003FF8BFFF80
00BFE0FFFFE0
02FFC0BFFFF4
0BFF402AFFF4
1FFD0003FFE0
3FF8001FFF80
7FE0003FFD00
BFD000BFFAFD
BFC000FFFFFF
FFC000FFFFFF
BFC000FFFFF9
7F40006FE940
150000000000
ENDCHAR
STARTCHAR threequarters
ENCODING 190
SWIDTH 818 0
DWIDTH 29 0
BBX 26 27 2 -1
BITMAP
0AFFF800002D00
3FFFFD0000BE00
7FFFFE0002FE00
7FFFFE000BFE00
2BFFF8002FFE00
07FFE000BFF800
07FFF001FFE000
02FFF407FF8000
197FF81FFE0000
3FFFF87FF80000
7FFFF5FFE00000
7FFFD7FF400400
1AA90FFD002E00
00003FF9807F00
0000FFE3E0BF40
0007FF8BF4FF40
001FFE0BF4FF80
007FF80BFFFFD0
01FFE00BFFFFE0
03FF8007FFFFD0
0BFE0002FFF900
0FFC00006FE000
1FF800003FD000
2FF400003FC000
2FF000003FD000
1FD000003FD000
054000000A4000
ENDCHAR
STARTCHAR questiondown
ENCODING 191
SWIDTH 556 0
DWIDTH 20 0
BBX 20 28 -2 -1
BITMAP
0000000010
00000001FC
0000000BFE
0000000BFF
0000000BFF
0000000BFF
00000001BD
0000000000
0000000000
0000001540
0000007FC0
000001FFD0
00001BFF80
0000BFFF40
000BFFFD00
006FFFF800
02FFFFD000
1FFFFE0000
3FFFF40000
BFFF800000
FFFE000000
FFFFA556E0
FFFFFFFFF8
FFFFFFFFFC
FFFFFFFFF8
BFFFFFFFF0
06FFFFFFD0
0016BFFE00
ENDCHAR
STARTCHAR Agrave
ENCODING 192
SWIDTH 702 0
DWIDTH 25 0
BBX 26 39 -1 -1
BITMAP
00000018000000
0000007E000000
000000FFD00000
000001FFF40000
000001FFFD0000
0000007FFF4000
0000001FFFC000
00000003FFF000
00000000BFF000
000000002FE000
0000000006D000
00000000000000
00000006400000
0000001FF90000
0000003FFE0000
000000BFFE0000
00002BFFFF0000
0000BFFFFF0000
0001FFFFFF4000
0003FFFFFF4000
0007FFFFFF8000
000FFFFBFFC000
001FFFD3FFC000
002FFF82FFD000
007FFF02FFE000
00BFFD01FFFF40
01FFF816FFFFE0
02FFFFFFFFFFF0
03FFFFFFFFFFD0
0BFFFFFFFFFE40
0FFFAFFFFFFD00
2FFF1FFFBFFD00
3FFD06501FFE00
7FFC00002FFE00
BFF80002FFFD00
7FF40001FFF800
3FF40000BFF000
1F8000007F8000
00000000040000
ENDCHAR
STARTCHAR Aacute
ENCODING 193
SWIDTH 702 0
DWIDTH 25 0
BBX 26 40 -1 -1
BITMAP
00000000024000
000000001FD000
000000007FF000
00000001FFF400
00000007FFF400
0000001FFFD000
0000007FFE0000
000000FFF80000
000000FFE00000
000000FF400000
00000078000000
00000000000000
00000000000000
00000006400000
0000001FF90000
0000003FFE0000
000000BFFE0000
00002BFFFF0000
0000BFFFFF0000
0001FFFFFF4000
0003FFFFFF4000
0007FFFFFF8000
000FFFFBFFC000
001FFFD3FFC000
002FFF82FFD000
007FFF02FFE000
00BFFD01FFFF40
01FFF816FFFFE0
02FFFFFFFFFFF0
03FFFFFFFFFFD0
0BFFFFFFFFFE40
0FFFAFFFFFFD00
2FFF1FFFBFFD00
3FFD06501FFE00
7FFC00002FFE00
BFF80002FFFD00
7FF40001FFF800
3FF40000BFF000
1F8000007F8000
00000000040000
ENDCHAR
STARTCHAR Acircumflex
ENCODING 194
SWIDTH 702 0
DWIDTH 25 0
BBX 26 38 -1 -1
BITMAP
00000001A00000
0000000BFD0000
0000003FFF4000
000000FFFFE000
000007FFFFF800
00001FFF1FFE00
00001FFC0BFF00
00000FF402FE00
00000780007C00
00000100001000
00000000000000
00000006400000
0000001FF90000
0000003FFE0000
000000BFFE0000
00002BFFFF0000
0000BFFFFF0000
0001FFFFFF4000
0003FFFFFF4000
0007FFFFFF8000
000FFFFBFFC000
001FFFD3FFC000
002FFF82FFD000
007FFF02FFE000
00BFFD01FFFF40
01FFF816FFFFE0
02FFFFFFFFFFF0
03FFFFFFFFFFD0
0BFFFFFFFFFE40
0FFFAFFFFFFD00
2FFF1FFFBFFD00
3FFD06501FFE00
7FFC00002FFE00
BFF80002FFFD00
7FF40001FFF800
3FF40000BFF000
1F8000007F8000
00000000040000
ENDCHAR
STARTCHAR Atilde
ENCODING 195
SWIDTH 702 0
DWIDTH 25 0
BBX 27 36 -1 -1
BITMAP
0000001BE801A8
000000BFFF47FC
000001FFFFDFF8
000003FFFFFFF0
00000BFDBFFFD0
00000FF83FFF80
00000A900AF900
00000000000000
00000000000000
00000006400000
0000001FF90000
0000003FFE0000
000000BFFE0000
00002BFFFF0000
0000BFFFFF0000
0001FFFFFF4000
0003FFFFFF4000
0007FFFFFF8000
000FFFFBFFC000
001FFFD3FFC000
002FFF82FFD000
007FFF02FFE000
00BFFD01FFFF40
01FFF816FFFFE0
02FFFFFFFFFFF0
03FFFFFFFFFFD0
0BFFFFFFFFFE40
0FFFAFFFFFFD00
2FFF1FFFBFFD00
3FFD06501FFE00
7FFC00002FFE00
BFF80002FFFD00
7FF40001FFF800
3FF40000BFF000
1F8000007F8000
00000000040000
ENDCHAR
STARTCHAR Adieresis
ENCODING 196
SWIDTH 702 0
DWIDTH 25 0
BBX 26 36 -1 -1
BITMAP
00000040004000
00000BE002FE00
00001FFC03FF80
00001FFE03FFC0
00002FFD03FF40
00001FF401BE00
00000550001400
00000000000000
00000000000000
00000006400000
0000001FF90000
0000003FFE0000
000000BFFE0000
00002BFFFF0000
0000BFFFFF0000
0001FFFFFF4000
0003FFFFFF4000
0007FFFFFF8000
000FFFFBFFC000
001FFFD3FFC000
002FFF82FFD000
007FFF02FFE000
00BFFD01FFFF40
01FFF816FFFFE0
02FFFFFFFFFFF0
03FFFFFFFFFFD0
0BFFFFFFFFFE40
0FFFAFFFFFFD00
2FFF1FFFBFFD00
3FFD06501FFE00
7FFC00002FFE00
BFF80002FFFD00
7FF40001FFF800
3FF40000BFF000
1F8000007F8000
00000000040000
ENDCHAR
STARTCHAR Aring
ENCODING 197
SWIDTH 702 0
DWIDTH 25 0
BBX 26 36 -1 -1
BITMAP
00000000064000
000000001FC000
00000000BFD000
00000002FFD000
0000000BFFF000
0000001FFFF400
0000003FD3F800
0000007FEBFC00
0000007FFFFC00
0000007FFFF400
0000002FFF9000
0000003FFE0000
000001FFFE0000
00002BFFFF0000
0000BFFFFF0000
0001FFFFFF4000
0003FFFFFF4000
0007FFFFFF8000
000FFFFBFFC000
001FFFD3FFC000
002FFF82FFD000
007FFF02FFE000
00BFFD01FFFF40
01FFF816FFFFE0
02FFFFFFFFFFF0
03FFFFFFFFFFD0
0BFFFFFFFFFE40
0FFFAFFFFFFD00
2FFF1FFFBFFD00
3FFD06501FFE00
7FFC00002FFE00
BFF80002FFFD00
7FF40001FFF800
3FF40000BFF000
1F8000007F8000
00000000040000
ENDCHAR
STARTCHAR AE
ENCODING 198
SWIDTH 1153 0
DWIDTH 42 0
BBX 46 27 -3 -1
BITMAP
000000000A4000000016A900
000000002FF400006BFFFF40
00000000BFFC006FFFFFFFD0
00000002FFFC1BFFFFFFFFD0
000001AFFFFC7FFFFFFFFF80
000003FFFFFC7FFFFFFFF900
00000BFFFFFC7FFFFFF94000
00001FFFFFFC3FFFFA400000
00003FFFFFFC2FFE40000000
0000BFFFBFFC1FFF00540000
0001FFFE3FFD0FFFFFFC0000
0002FFF83FFD1FFFFFFF4000
0007FFE02FFD3FFFFFFFD000
000FFFC02FFFFFFFFFFFD000
002FFF456FFFFFFFFFFE0000
007FFFFFFFFFFFFFFFE40000
00FFFFFFFFFFFFF040000000
02FFFFFFFFFFFFD000000000
03FFEBFFFFFFFF8000014000
0BFF87FFEFFFFF40156FD000
1FFF01940BFFFFFFFFFFF800
2FFE00001FFFFFFFFFFFFD00
7FFC0001FFFFFFFFFFFFFC00
3FF80000FFFFFFFFFFFFF400
3FF400007FF5FFFFFFFF8000
1F8000007F906FFFFE940000
000000000400015400000000
ENDCHAR
STARTCHAR Ccedilla
ENCODING 199
SWIDTH 611 0
DWIDTH 22 0
BBX 22 38 0 -12
BITMAP
00000002A400
0000001FFD00
000001BFFF80
00001BFFFFD0
0000BFFFFFD0
000BFFFFFFC0
002FFFFFFF40
00BFFFFFE400
03FFFFF90000
0BFFFFD00000
2FFFFE000000
7FFFE4000000
BFFF40000000
FFFD00000000
FFF400000000
FFE000000000
BFD000000000
BFD000000000
7FF400000000
3FFFA5540000
2FFFFFFFF800
0FFFFFFFFE00
07FFFFFFFF00
00BFFFFFFF40
001BFFFFFD00
0007FEFEA000
001FF4000000
003FE0000000
003FF9000000
003FFF400000
001FFFE00000
00016FF40000
000007FC0000
01556FFC0000
07FFFFF80000
03FFFFE00000
00FFFE400000
001540000000
ENDCHAR
STARTCHAR Egrave
ENCODING 200
SWIDTH 626 0
DWIDTH 23 0
BBX 24 40 0 -1
BITMAP
000006400000
00001FD00000
00002FF40000
00007FFD0000
00007FFF4000
00001FFFD000
000002FFF400
000000BFFC00
0000002FFC00
00000007FC00
00000000B800
000000000000
000000000000
000000016A90
000006BFFFF8
0006FFFFFFFD
01BFFFFFFFFD
07FFFFFFFFF8
07FFFFFFFF90
07FFFFFF9400
03FFFFA40000
02FFF4000000
01FFF0054000
00FFFFFFC000
01FFFFFFF400
03FFFFFFFD00
07FFFFFFFD00
0BFFFFFFE000
1FFFFFFE4000
3FFF04000000
7FFD00000000
BFFC00001400
BFF40156FD00
BFFFFFFFFF80
7FFFFFFFFFD0
7FFFFFFFFFC0
3FFFFFFFFF40
1FFFFFFFF800
06FFFFE94000
001540000000
ENDCHAR
STARTCHAR Eacute
ENCODING 201
SWIDTH 626 0
DWIDTH 23 0
BBX 24 40 0 -1
BITMAP
000000001800
000000007E00
00000002FF80
0000000BFFC0
0000002FFFC0
000000BFFE40
000002FFF800
000007FFD000
000007FF4000
000007FD0000
000002D00000
000000000000
000000000000
000000016A90
000006BFFFF8
0006FFFFFFFD
01BFFFFFFFFD
07FFFFFFFFF8
07FFFFFFFF90
07FFFFFF9400
03FFFFA40000
02FFF4000000
01FFF0054000
00FFFFFFC000
01FFFFFFF400
03FFFFFFFD00
07FFFFFFFD00
0BFFFFFFE000
1FFFFFFE4000
3FFF04000000
7FFD00000000
BFFC00001400
BFF40156FD00
BFFFFFFFFF80
7FFFFFFFFFD0
7FFFFFFFFFC0
3FFFFFFFFF40
1FFFFFFFF800
06FFFFE94000
001540000000
ENDCHAR
STARTCHAR Ecircumflex
ENCODING 202
SWIDTH 626 0
DWIDTH 23 0
BBX 24 38 0 -1
BITMAP
0000001A0000
000000BFD000
000003FFF400
00001FFFFD00
00007FFFFF80
0001FFE2FFE0
0002FFC0BFF0
0001FF002FE0
0000B80007C0
000010000100
000000000000
000000016A90
000006BFFFF8
0006FFFFFFFD
01BFFFFFFFFD
07FFFFFFFFF8
07FFFFFFFF90
07FFFFFF9400
03FFFFA40000
02FFF4000000
01FFF0054000
00FFFFFFC000
01FFFFFFF400
03FFFFFFFD00
07FFFFFFFD00
0BFFFFFFE000
1FFFFFFE4000
3FFF04000000
7FFD00000000
BFFC00001400
BFF40156FD00
BFFFFFFFFF80
7FFFFFFFFFD0
7FFFFFFFFFC0
3FFFFFFFFF40
1FFFFFFFF800
06FFFFE94000
001540000000
ENDCHAR
STARTCHAR Edieresis
ENCODING 203
SWIDTH 626 0
DWIDTH 23 0
BBX 24 36 0 -1
BITMAP
000004000400
0000BE002FE0
0001FF803FF8
0002FFD03FF8
0002FFD03FF4
0001FF401BE0
000054000100
000000000000
000000000000
000000016A90
000006BFFFF8
0006FFFFFFFD
01BFFFFFFFFD
07FFFFFFFFF8
07FFFFFFFF90
07FFFFFF9400
03FFFFA40000
02FFF4000000
01FFF0054000
00FFFFFFC000
01FFFFFFF400
03FFFFFFFD00
07FFFFFFFD00
0BFFFFFFE000
1FFFFFFE4000
3FFF04000000
7FFD00000000
BFFC00001400
BFF40156FD00
BFFFFFFFFF80
7FFFFFFFFFD0
7FFFFFFFFFC0
3FFFFFFFFF40
1FFFFFFFF800
06FFFFE94000
001540000000
ENDCHAR
STARTCHAR Igrave
ENCODING 204
SWIDTH 515 0
DWIDTH 19 0
BBX 26 41 -2 -1
BITMAP
00000180000000
000007F4000000
00000FFD000000
00001FFF400000
00001FFFD00000
000007FFF40000
000000BFFD0000
0000002FFF0000
0000000BFF0000
00000001FF0000
000000002D0000
00000000000000
00000000000000
00000000000000
00015BFFFFF900
000BFFFFFFFF00
000FFFFFFFFFC0
000BFFFFFFFFD0
000BFFFFFFFE40
0003FFFFE54000
000050FFD00000
000001FFD00000
000002FFC00000
000003FF800000
000007FF400000
000007FF000000
00000BFE000000
00001FFD000000
00002FFD000000
00003FFC000000
00007FF8000000
0000BFF0000000
0001FFE0000000
0002FFD0000000
015BFFFF400000
3FFFFFFFD00000
7FFFFFFFF00000
3FFFFFFFE00000
2FFFFFFF800000
1FFA5500000000
05400000000000
ENDCHAR
STARTCHAR Iacute
ENCODING 205
SWIDTH 515 0
DWIDTH 19 0
BBX 26 41 -2 -1
BITMAP
00000000002800
0000000000BE00
0000000003FF40
000000000FFF80
000000002FFF80
00000000BFFE00
00000002FFF400
0000000BFFD000
0000000BFF4000
00000007F80000
00000003900000
00000000000000
00000000000000
00000000000000
00015BFFFFF900
000BFFFFFFFF00
000FFFFFFFFFC0
000BFFFFFFFFD0
000BFFFFFFFE40
0003FFFFE54000
000050FFD00000
000001FFD00000
000002FFC00000
000003FF800000
000007FF400000
000007FF000000
00000BFE000000
00001FFD000000
00002FFD000000
00003FFC000000
00007FF8000000
0000BFF0000000
0001FFE0000000
0002FFD0000000
015BFFFF400000
3FFFFFFFD00000
7FFFFFFFF00000
3FFFFFFFE00000
2FFFFFFF800000
1FFA5500000000
05400000000000
ENDCHAR
STARTCHAR Icircumflex
ENCODING 206
SWIDTH 515 0
DWIDTH 19 0
BBX 26 39 -2 -1
BITMAP
00000001A40000
0000000BFE0000
0000002FFF8000
000000BFFFE000
000002FFFFF800
00000FFF5FFF40
00000FFD07FF40
00000BF401FF00
000007D0007D00
00000140000400
00000000000000
00000000000000
00015BFFFFF900
000BFFFFFFFF00
000FFFFFFFFFC0
000BFFFFFFFFD0
000BFFFFFFFE40
0003FFFFE54000
000050FFD00000
000001FFD00000
000002FFC00000
000003FF800000
000007FF400000
000007FF000000
00000BFE000000
00001FFD000000
00002FFD000000
00003FFC000000
00007FF8000000
0000BFF0000000
0001FFE0000000
0002FFD0000000
015BFFFF400000
3FFFFFFFD00000
7FFFFFFFF00000
3FFFFFFFE00000
2FFFFFFF800000
1FFA5500000000
05400000000000
ENDCHAR
STARTCHAR Idieresis
ENCODING 207
SWIDTH 515 0
DWIDTH 19 0
BBX 26 37 -2 -1
BITMAP
00000010001000
000002F800FF40
00000BFE01FFD0
00000FFF01FFD0
00000FFF01FFC0
00000BF8007F40
00000150000400
00000000000000
00000000000000
00000000000000
00015BFFFFF900
000BFFFFFFFF00
000FFFFFFFFFC0
000BFFFFFFFFD0
000BFFFFFFFE40
0003FFFFE54000
000050FFD00000
000001FFD00000
000002FFC00000
000003FF800000
000007FF400000
000007FF000000
00000BFE000000
00001FFD000000
00002FFD000000
00003FFC000000
00007FF8000000
0000BFF0000000
0001FFE0000000
0002FFD0000000
015BFFFF400000
3FFFFFFFD00000
7FFFFFFFF00000
3FFFFFFFE00000
2FFFFFFF800000
1FFA5500000000
05400000000000
ENDCHAR
STARTCHAR Eth
ENCODING 208
SWIDTH 656 0
DWIDTH 24 0
BBX 24 27 -1 -1
BITMAP
000A40000000
000FF9000000
001FFF900000
000FFFFE0000
000BFFFF9000
002FFFFFF400
001FFBFFFE00
001FF06FFF80
000FF402FFE0
000FF9003FF4
16FFFFC01FFC
7FFFFFE003FD
7FFFFFF401FE
7FFFFFF403FF
3FFFFF900BFF
2FFFF8007FFF
042FF407FFFD
003FF46FFFF8
007FFBFFFFE0
00BFFFFFFF80
00FFFFFFFD00
00FFFFFFE000
00FFFFFE4000
00BFFFE00000
007FFD000000
002F90000000
000400000000
ENDCHAR
STARTCHAR Ntilde
ENCODING 209
SWIDTH 684 0
DWIDTH 25 0
BBX 28 36 -1 0
BITMAP
00000006F9006A
0000002FFF82FF
000000BFFFEBFD
000001FFFFFFFC
000003FF7FFFF4
000007FD1FFFD0
000002A402FE40
00000000000000
00000000000000
00000000000000
00002900003800
00003F80007F40
0000BFE000BFE0
0000FFF800FFF0
0001FFFC01FFF4
0003FFFC02FFF4
0007FFFC02FFF0
000FFFF803FFD0
001FFFF403FFC0
003FFFF007FF80
007FFFF00BFF80
00FFFFF00BFF40
01FFFFF00FFF40
02FFFFF02FFF00
07FFFFF03FFF00
0BFFFFF0BFFF00
1FFFFFF2FFFE00
2FFFFFFFFFFD00
7FFFDFFFFFFC00
7FFF8BFFFFF800
3FFF03FFFFE000
3FFE01FFFFD000
2FFD00BFFF4000
0FFC002FFE0000
07F80007F40000
02D00000400000
ENDCHAR
STARTCHAR Ograve
ENCODING 210
SWIDTH 744 0
DWIDTH 27 0
BBX 26 39 0 -1
BITMAP
00000001800000
00000007E00000
0000000FFD0000
0000002FFF4000
0000002FFFD000
0000000BFFF000
00000001FFF800
000000007FFE00
000000000BFE00
0000000002FE00
00000000006D00
00000000A40000
00000006FC0000
0000002FFF0000
000000BFFFC000
000002FFFFD000
00001FFFFFC000
00007FFFFF8000
0001FFFFFFC000
000BFFFFFFE000
002FFFFFFFF000
007FFFE53FF800
00FFFF401FFC00
02FFFD000FFE00
0BFFF00007FF40
0FFFC00002FF80
2FFF400001FF80
3FFE000000FFC0
7FFC000001FFD0
7FF400000BFFD0
BFF000007FFFD0
BFF4005BFFFFC0
BFFFFFFFFFFF80
7FFFFFFFFFFE00
2FFFFFFFFFF800
0FFFFFFFFF9000
07FFFFFFF40000
00BFFFE9400000
00015500000000
ENDCHAR
STARTCHAR Oacute
ENCODING 211
SWIDTH 744 0
DWIDTH 27 0
BBX 26 40 0 -1
BITMAP
00000000090000
000000007F4000
00000001FFC000
00000007FFD000
0000001FFFD000
0000007FFF4000
000001FFF80000
000003FFE00000
000003FF800000
000003FD000000
000001E0000000
00000000000000
00000000A40000
00000006FC0000
0000002FFF0000
000000BFFFC000
000002FFFFD000
00001FFFFFC000
00007FFFFF8000
0001FFFFFFC000
000BFFFFFFE000
002FFFFFFFF000
007FFFE53FF800
00FFFF401FFC00
02FFFD000FFE00
0BFFF00007FF40
0FFFC00002FF80
2FFF400001FF80
3FFE000000FFC0
7FFC000001FFD0
7FF400000BFFD0
BFF000007FFFD0
BFF4005BFFFFC0
BFFFFFFFFFFF80
7FFFFFFFFFFE00
2FFFFFFFFFF800
0FFFFFFFFF9000
07FFFFFFF40000
00BFFFE9400000
00015500000000
ENDCHAR
STARTCHAR Ocircumflex
ENCODING 212
SWIDTH 744 0
DWIDTH 27 0
BBX 26 38 0 -1
BITMAP
00000000780000
00000007FF4000
0000001FFFD000
0000007FFFF400
000001FFFFFD00
00000BFF8BFF80
00000BFE02FF80
000007FC00BF40
000002E0002E00
00000040000400
00000000A40000
00000006FC0000
0000002FFF0000
000000BFFFC000
000002FFFFD000
00001FFFFFC000
00007FFFFF8000
0001FFFFFFC000
000BFFFFFFE000
002FFFFFFFF000
007FFFE53FF800
00FFFF401FFC00
02FFFD000FFE00
0BFFF00007FF40
0FFFC00002FF80
2FFF400001FF80
3FFE000000FFC0
7FFC000001FFD0
7FF400000BFFD0
BFF000007FFFD0
BFF4005BFFFFC0
BFFFFFFFFFFF80
7FFFFFFFFFFE00
2FFFFFFFFFF800
0FFFFFFFFF9000
07FFFFFFF40000
00BFFFE9400000
00015500000000
ENDCHAR
STARTCHAR Otilde
ENCODING 213
SWIDTH 744 0
DWIDTH 27 0
BBX 27 36 0 -1
BITMAP
0000001BE401A8
000000BFFE0BFC
000002FFFFAFF4
000007FFFFFFF0
00000FFDFFFFD0
00001FF47FFF40
00000A900BF900
00000000000000
00000000A40000
00000006FC0000
0000002FFF0000
000000BFFFC000
000002FFFFD000
00001FFFFFC000
00007FFFFF8000
0001FFFFFFC000
000BFFFFFFE000
002FFFFFFFF000
007FFFE53FF800
00FFFF401FFC00
02FFFD000FFE00
0BFFF00007FF40
0FFFC00002FF80
2FFF400001FF80
3FFE000000FFC0
7FFC000001FFD0
7FF400000BFFD0
BFF000007FFFD0
BFF4005BFFFFC0
BFFFFFFFFFFF80
7FFFFFFFFFFE00
2FFFFFFFFFF800
0FFFFFFFFF9000
07FFFFFFF40000
00BFFFE9400000
00015500000000
ENDCHAR
STARTCHAR Odieresis
ENCODING 214
SWIDTH 744 0
DWIDTH 27 0
BBX 26 36 0 -1
BITMAP
00000010000000
000006F401FF00
00000FFD01FFC0
00000FFF01FFD0
00000FFE02FFC0
00000BF800BE40
00000150001400
00000000000000
00000000A40000
00000006FC0000
0000002FFF0000
000000BFFFC000
000002FFFFD000
00001FFFFFC000
00007FFFFF8000
0001FFFFFFC000
000BFFFFFFE000
002FFFFFFFF000
007FFFE53FF800
00FFFF401FFC00
02FFFD000FFE00
0BFFF00007FF40
0FFFC00002FF80
2FFF400001FF80
3FFE000000FFC0
7FFC000001FFD0
7FF400000BFFD0
BFF000007FFFD0
BFF4005BFFFFC0
BFFFFFFFFFFF80
7FFFFFFFFFFE00
2FFFFFFFFFF800
0FFFFFFFFF9000
07FFFFFFF40000
00BFFFE9400000
00015500000000
ENDCHAR
STARTCHAR multiply
ENCODING 215
SWIDTH 490 0
DWIDTH 18 0
BBX 18 19 0 0
BITMAP
0240000100
07E0001F80
0BF800BFD0
0BFE07FFD0
07FF9FFFC0
02FFFFFE00
00BFFFE400
003FFF8000
003FFD0000
00FFFC0000
03FFFE0000
0BFFFF4000
2FFDFFC000
7FF47FE000
BFD02FF000
FF400FF400
FE000BF400
BD0003E000
3800004000
ENDCHAR
STARTCHAR Oslash
ENCODING 216
SWIDTH 744 0
DWIDTH 27 0
BBX 26 32 0 -5
BITMAP
00000000A40140
00000006FC0BC0
0000002FFF2FD0
000000BFFFFFD0
000002FFFFFFD0
00001FFFFFFFD0
00007FFFFFFFC0
0001FFFFFFFF40
000BFFFFFFFE00
002FFFFFFFF800
007FFFE7FFF800
00FFFF4BFFFC00
02FFFD2FFFFE00
0BFFF07FFFFF40
0FFFC1FFF7FF80
2FFF42FFE1FF80
3FFE0BFFC0FFC0
7FFC2FFF41FFD0
7FF47FFD0BFFD0
BFF1FFF47FFFD0
BFFBFFFBFFFFC0
BFFFFFFFFFFF80
7FFFFFFFFFFE00
2FFFFFFFFFF800
0FFFFFFFFF9000
07FFFFFFF40000
01FFFFE9400000
02FFD500000000
02FFD000000000
01FFD000000000
00FF4000000000
00190000000000
ENDCHAR
STARTCHAR Ugrave
ENCODING 217
SWIDTH 695 0
DWIDTH 25 0
BBX 25 36 1 0
BITMAP
0000A000000000
0002F800000000
0007FF00000000
000BFFC0000000
000BFFF0000000
0002FFFC000000
00007FFE000000
00001FFF800000
000003FF800000
000000BF800000
0000001B007400
0000000000FD00
0000000000FE00
07C0000002FF00
0FE0000002FF40
0FF8000002FF80
1FFC000003FF80
1FFD000007FFC0
2FFE00000BFF80
2FFE00000FFF40
3FFE00001FFF40
3FFD00003FFF00
3FFC0000BFFE00
7FFC0001FFFC00
7FFC0007FFF400
3FFC002FFFF000
3FFC01FFFFD000
3FFD6FFFFF4000
3FFFFFFFFD0000
2FFFFFFFF40000
0FFFFFFFE00000
0FFFFFFF800000
0BFFFFFE000000
03FFFFF4000000
01FFFE40000000
001AA400000000
ENDCHAR
STARTCHAR Uacute
ENCODING 218
SWIDTH 695 0
DWIDTH 25 0
BBX 25 38 1 0
BITMAP
000000000A0000
000000002F8000
00000000FFD000
00000003FFE000
0000000BFFE000
0000002FFF8000
000000BFFD0000
000002FFF40000
000002FFD00000
000001FE000000
000000E4000000
00000000000000
00000000007400
0000000000FD00
0000000000FE00
07C0000002FF00
0FE0000002FF40
0FF8000002FF80
1FFC000003FF80
1FFD000007FFC0
2FFE00000BFF80
2FFE00000FFF40
3FFE00001FFF40
3FFD00003FFF00
3FFC0000BFFE00
7FFC0001FFFC00
7FFC0007FFF400
3FFC002FFFF000
3FFC01FFFFD000
3FFD6FFFFF4000
3FFFFFFFFD0000
2FFFFFFFF40000
0FFFFFFFE00000
0FFFFFFF800000
0BFFFFFE000000
03FFFFF4000000
01FFFE40000000
001AA400000000
ENDCHAR
STARTCHAR Ucircumflex
ENCODING 219
SWIDTH 695 0
DWIDTH 25 0
BBX 25 37 1 0
BITMAP
00000069000000
000002FF800000
00000BFFE00000
00002FFFF80000
0000BFFFFE0000
0003FFD7FFD000
0003FF41FFD000
0002FD007FC000
0001F4001F4000
00005000010000
00000000000000
00000000007400
0000000000FD00
0000000000FE00
07C0000002FF00
0FE0000002FF40
0FF8000002FF80
1FFC000003FF80
1FFD000007FFC0
2FFE00000BFF80
2FFE00000FFF40
3FFE00001FFF40
3FFD00003FFF00
3FFC0000BFFE00
7FFC0001FFFC00
7FFC0007FFF400
3FFC002FFFF000
3FFC01FFFFD000
3FFD6FFFFF4000
3FFFFFFFFD0000
2FFFFFFFF40000
0FFFFFFFE00000
0FFFFFFF800000
0BFFFFFE000000
03FFFFF4000000
01FFFE40000000
001AA400000000
ENDCHAR
STARTCHAR Udieresis
ENCODING 220
SWIDTH 695 0
DWIDTH 25 0
BBX 25 35 1 0
BITMAP
00000400000000
0001BD007F8000
0003FF40BFF000
0007FFC0BFF400
0007FF80BFE000
0003FD006F8000
00005400050000
00000000000000
00000000000000
00000000007400
0000000000FD00
0000000000FE00
07C0000002FF00
0FE0000002FF40
0FF8000002FF80
1FFC000003FF80
1FFD000007FFC0
2FFE00000BFF80
2FFE00000FFF40
3FFE00001FFF40
3FFD00003FFF00
3FFC0000BFFE00
7FFC0001FFFC00
7FFC0007FFF400
3FFC002FFFF000
3FFC01FFFFD000
3FFD6FFFFF4000
3FFFFFFFFD0000
2FFFFFFFF40000
0FFFFFFFE00000
0FFFFFFF800000
0BFFFFFE000000
03FFFFF4000000
01FFFE40000000
001AA400000000
ENDCHAR
STARTCHAR Yacute
ENCODING 221
SWIDTH 493 0
DWIDTH 18 0
BBX 21 41 1 -1
BITMAP
00000000A000
00000002F800
0000000FFD00
0000003FFE00
000000FFFE00
000003FFF800
00000BFFD000
00002FFF4000
00002FFC0000
00002FE00000
00000E400000
000000000000
000000000000
040000005000
2E400002F800
3FE0000FFE00
3FF8003FFF80
2FFC00BFFF80
2FFC02FFFF00
2FFD07FFF800
1FFE0FFFF000
1FFE2FFFD000
0FFFBFFF4000
0FFFFFFD0000
0BFFFFF80000
07FFFFF00000
02FFFFD00000
01FFFF800000
00BFFF400000
00BFFE000000
01FFFC000000
02FFF4000000
07FFE0000000
0BFFD0000000
1FFF80000000
2FFF40000000
3FFE00000000
7FFC00000000
7FF800000000
2FF000000000
0BD000000000
ENDCHAR
STARTCHAR Thorn
ENCODING 222
SWIDTH 680 0
DWIDTH 25 0
BBX 24 27 1 -1
BITMAP
002C00000000
01FD00000000
02FE00000000
03FF40000000
07FF95400000
0BFFFFFFA400
0FFFFFFFFE40
0FFFFFFFFFE0
0FFFFFFFFFF4
1FFFEABFFFFC
2FFF0000FFFD
3FFE0000FFFE
7FFD0007FFFE
7FFD002FFFFD
BFFC02FFFFF8
BFFC6FFFFFD0
BFFFFFFFFE40
BFFFFFFFF400
FFFFFFFE4000
FFFFFF900000
BFFFE4000000
BFFA40000000
7FF400000000
3FF400000000
2FF400000000
1FE000000000
010000000000
ENDCHAR
STARTCHAR germandbls
ENCODING 223
SWIDTH 931 0
DWIDTH 34 0
BBX 38 23 0 -1
BITMAP
0000006A9400001AA400
00006BFFFC001BFFFE00
0007FFFFFE06FFFFFF40
01BFFFFFFFAFFFFFFFC0
1FFFFFFFFFFFFFFFFFD0
3FFFFFAAAFFFFFEAAA80
7FFFD0002FFFE4000000
BFFFE4002FFFF9000000
7FFFFE002FFFFF800000
7FFFFF801FFFFFE00000
1BFFFFD006FFFFF00000
0056BFF00015AFF80000
00000BF8000006FD0000
000002FC000000FE0000
000007FC000002FE0000
00002FFC00000BFE0000
0001FFF40000BFFD0000
056FFFF0015BFFF80000
1FFFFFC007FFFFE00000
1FFFFE0007FFFF800000
1FFFF40007FFFD000000
0FFF400003FF90000000
0694000001A400000000
ENDCHAR
STARTCHAR agrave
ENCODING 224
SWIDTH 581 0
DWIDTH 21 0
BBX 22 35 -1 -1
BITMAP
000002400000
00000BD00000
00002FF80000
00003FFE0000
00003FFF8000
00001BFFE000
000002FFF800
0000007FFD00
0000001FFD00
00000007FD00
000000007800
000000000000
000000400000
000001F90000
000003FF4000
00001FFF8000
0002BFFF8000
0007FFFF8000
000FFFFFC000
001FFFFFD000
003FFEBFD000
007FFC7FE000
00BFF47FF000
01FFE03FFA00
02FFC17FFFD0
07FFFFFFFFE0
0BFFFFFFFF80
1FFEFFFFFE00
2FF9FFFFFE00
3FF46947FE00
7FF0000BFE00
BFE0007FFD00
7FD0001FF800
2F40000FE000
050000014000
ENDCHAR
STARTCHAR aacute
ENCODING 225
SWIDTH 581 0
DWIDTH 21 0
BBX 22 35 -1 -1
BITMAP
000000009000
00000002F400
0000001FFC00
0000007FFD00
000001FFFD00
000007FFF400
00000FFFD000
00003FFF0000
00003FF80000
00002FE00000
00001E400000
000000000000
000000400000
000001F90000
000003FF4000
00001FFF8000
0002BFFF8000
0007FFFF8000
000FFFFFC000
001FFFFFD000
003FFEBFD000
007FFC7FE000
00BFF47FF000
01FFE03FFA00
02FFC17FFFD0
07FFFFFFFFE0
0BFFFFFFFF80
1FFEFFFFFE00
2FF9FFFFFE00
3FF46947FE00
7FF0000BFE00
BFE0007FFD00
7FD0001FF800
2F40000FE000
050000014000
ENDCHAR
STARTCHAR acircumflex
ENCODING 226
SWIDTH 581 0
DWIDTH 21 0
BBX 22 33 -1 -1
BITMAP
000000690000
000002FF4000
00000BFFE000
00002FFFF800
0000FFFFFE00
0007FFD7FFC0
0007FF41FFC0
0003FD007F80
0001F4001F40
000040000500
000000400000
000001F90000
000003FF4000
00001FFF8000
0002BFFF8000
0007FFFF8000
000FFFFFC000
001FFFFFD000
003FFEBFD000
007FFC7FE000
00BFF47FF000
01FFE03FFA00
02FFC17FFFD0
07FFFFFFFFE0
0BFFFFFFFF80
1FFEFFFFFE00
2FF9FFFFFE00
3FF46947FE00
7FF0000BFE00
BFE0007FFD00
7FD0001FF800
2F40000FE000
050000014000
ENDCHAR
STARTCHAR atilde
ENCODING 227
SWIDTH 581 0
DWIDTH 21 0
BBX 24 31 -1 -1
BITMAP
00000AF900A9
00007FFF83FE
0000FFFFEBFD
0002FFFFFFF8
0007FEBFFFF0
000BFC2FFFD0
0006A006FA00
000000000000
000000400000
000001F90000
000003FF4000
00001FFF8000
0002BFFF8000
0007FFFF8000
000FFFFFC000
001FFFFFD000
003FFEBFD000
007FFC7FE000
00BFF47FF000
01FFE03FFA00
02FFC17FFFD0
07FFFFFFFFE0
0BFFFFFFFF80
1FFEFFFFFE00
2FF9FFFFFE00
3FF46947FE00
7FF0000BFE00
BFE0007FFD00
7FD0001FF800
2F40000FE000
050000014000
ENDCHAR
STARTCHAR adieresis
ENCODING 228
SWIDTH 581 0
DWIDTH 21 0
BBX 23 32 -1 -1
BITMAP
000004000400
0000BE002FD0
0001FF803FF4
0002FFD03FF8
0002FFC03FF4
0001FF401FD0
000054000100
000000000000
000000000000
000000400000
000001F90000
000003FF4000
00001FFF8000
0002BFFF8000
0007FFFF8000
000FFFFFC000
001FFFFFD000
003FFEBFD000
007FFC7FE000
00BFF47FF000
01FFE03FFA00
02FFC17FFFD0
07FFFFFFFFE0
0BFFFFFFFF80
1FFEFFFFFE00
2FF9FFFFFE00
3FF46947FE00
7FF0000BFE00
BFE0007FFD00
7FD0001FF800
2F40000FE000
050000014000
ENDCHAR
STARTCHAR aring
ENCODING 229
SWIDTH 581 0
DWIDTH 21 0
BBX 22 31 -1 -1
BITMAP
000000009000
00000007F400
0000001FF400
000000BFF400
000001FFFC00
000007FFFE00
00000BF4FF00
00001FF6FF00
00001FFFFF00
00001FFFFD00
00000BFFE400
00000FFF8000
0002BFFF8000
0007FFFF8000
000FFFFFC000
001FFFFFD000
003FFEBFD000
007FFC7FE000
00BFF47FF000
01FFE03FFA00
02FFC17FFFD0
07FFFFFFFFE0
0BFFFFFFFF80
1FFEFFFFFE00
2FF9FFFFFE00
3FF46947FE00
7FF0000BFE00
BFE0007FFD00
7FD0001FF800
2F40000FE000
050000014000
ENDCHAR
STARTCHAR ae
ENCODING 230
SWIDTH 948 0
DWIDTH 34 0
BBX 38 23 -3 -1
BITMAP
00000001000000001500
00000007E400016BFF80
0000001FFD016FFFFFF0
0000007FFD1FFFFFFFF0
00001BFFFD7FFFFFFFC0
00003FFFFD7FFFFFE900
0000BFFFFD3FFFF80000
0001FFFFFD3FF9000000
0003FFEBFD1FF9550000
000BFF8BFD1FFFFF8000
000FFF0BFE2FFFFFF400
002FFD07FFBFFFFFF800
007FF45BFFFFFFFFD000
00FFFFFFFFFFFFFA0000
02FFFFFFFFFFC0000000
07FFBFFFFFFF40000000
0BFE7FFFFFFF0001B400
1FFC2A52FFFFABFFFE00
3FF40007FFFFFFFFFF00
7FF0003FFFFFFFFFFE00
3FE0001FFEFFFFFFF800
2F80000FF4BFFFFE5000
05000001400554000000
ENDCHAR
STARTCHAR ccedilla
ENCODING 231
SWIDTH 513 0
DWIDTH 19 0
BBX 18 33 0 -11
BITMAP
0000001400
000001BE00
00001BFF80
0000BFFFE0
0007FFFFE0
007FFFFFC0
01FFFFFE40
07FFFF9000
1FFFF80000
3FFFD00000
BFFE000000
FFF4000000
FFD0000000
FF80000000
BF40000000
BF80000000
7FE9400000
3FFFFFFD00
1FFFFFFF40
07FFFFFFC0
00FFFFFF80
001FFFFD00
002FD50000
007F800000
007FE40000
007FFE0000
001BFF8000
00006FD000
00006FE000
07FFFFE000
07FFFF8000
01FFF90000
0015000000
ENDCHAR
STARTCHAR egrave
ENCODING 232
SWIDTH 521 0
DWIDTH 19 0
BBX 20 35 0 -1
BITMAP
0006000000
001F800000
003FF40000
00BFFD0000
00BFFF4000
001FFFD000
0007FFF000
0000FFF800
00002FF800
00000BF800
000001B400
0000000000
0000000150
000016BFF4
001AFFFFFE
02FFFFFFFD
0BFFFFFFF8
0BFFFFFE50
0BFFFE4000
07FF800000
02FF555000
02FFFFF800
03FFFFFE00
0BFFFFFF40
0FFFFFFD00
2FFEFF9000
3FF8000000
7FF0000000
BFE0006B00
BFFABFFFD0
7FFFFFFFE0
7FFFFFFFD0
2FFFFFFF40
0BFFFFE400
0055400000
ENDCHAR
STARTCHAR eacute
ENCODING 233
SWIDTH 521 0
DWIDTH 19 0
BBX 20 35 0 -1
BITMAP
0000000640
0000001FC0
000000BFE0
000002FFF0
00000BFFF0
00002FFFD0
00007FFE00
0001FFF800
0001FFD000
0000FF4000
0000B80000
0000000000
0000000150
000016BFF4
001AFFFFFE
02FFFFFFFD
0BFFFFFFF8
0BFFFFFE50
0BFFFE4000
07FF800000
02FF555000
02FFFFF800
03FFFFFE00
0BFFFFFF40
0FFFFFFD00
2FFEFF9000
3FF8000000
7FF0000000
BFE0006B00
BFFABFFFD0
7FFFFFFFE0
7FFFFFFFD0
2FFFFFFF40
0BFFFFE400
0055400000
ENDCHAR
STARTCHAR ecircumflex
ENCODING 234
SWIDTH 521 0
DWIDTH 19 0
BBX 21 33 0 -1
BITMAP
000000B40000
000007FE0000
00001FFFC000
0000BFFFF000
0002FFFFFD00
000BFF4FFF40
000FFE03FF40
000BF801FF00
0003D0002D00
000040000400
000000015000
000016BFF400
001AFFFFFE00
02FFFFFFFD00
0BFFFFFFF800
0BFFFFFE5000
0BFFFE400000
07FF80000000
02FF55500000
02FFFFF80000
03FFFFFE0000
0BFFFFFF4000
0FFFFFFD0000
2FFEFF900000
3FF800000000
7FF000000000
BFE0006B0000
BFFABFFFD000
7FFFFFFFE000
7FFFFFFFD000
2FFFFFFF4000
0BFFFFE40000
005540000000
ENDCHAR
STARTCHAR edieresis
ENCODING 235
SWIDTH 521 0
DWIDTH 19 0
BBX 22 32 0 -1
BITMAP
000010001000
0002F800BF40
0007FE00FFD0
000BFF40FFE0
000BFF00FFD0
0007FD007F40
000150000400
000000000000
000000000000
000000015000
000016BFF400
001AFFFFFE00
02FFFFFFFD00
0BFFFFFFF800
0BFFFFFE5000
0BFFFE400000
07FF80000000
02FF55500000
02FFFFF80000
03FFFFFE0000
0BFFFFFF4000
0FFFFFFD0000
2FFEFF900000
3FF800000000
7FF000000000
BFE0006B0000
BFFABFFFD000
7FFFFFFFE000
7FFFFFFFD000
2FFFFFFF4000
0BFFFFE40000
005540000000
ENDCHAR
STARTCHAR igrave
ENCODING 236
SWIDTH 320 0
DWIDTH 12 0
BBX 12 35 2 -1
BITMAP
024000
0BD000
2FF800
3FFE00
3FFF80
1BFFE0
02FFF4
007FFD
001FFD
0007FD
0000B8
000000
005000
01F000
03F400
07FC00
0BFC00
0FFD00
0FFE00
1FFD00
2FFC00
3FF800
3FF400
7FF000
BFE000
BFE000
BFD000
BFD000
FFD000
BFD000
BFD000
7FD000
3FD000
2FC000
050000
ENDCHAR
STARTCHAR iacute
ENCODING 237
SWIDTH 320 0
DWIDTH 12 0
BBX 17 36 2 -1
BITMAP
0000001800
000000BE00
000002FF40
00000BFF80
00002FFFC0
0000BFFE00
0002FFF400
000BFFD000
0007FF4000
0007F80000
0002D00000
0000000000
0000000000
0050000000
01F0000000
03F4000000
07FC000000
0BFC000000
0FFD000000
0FFE000000
1FFD000000
2FFC000000
3FF8000000
3FF4000000
7FF0000000
BFE0000000
BFE0000000
BFD0000000
BFD0000000
FFD0000000
BFD0000000
BFD0000000
7FD0000000
3FD0000000
2FC0000000
0500000000
ENDCHAR
STARTCHAR icircumflex
ENCODING 238
SWIDTH 320 0
DWIDTH 12 0
BBX 15 34 1 -1
BITMAP
00069000
002FF800
00BFFE00
02FFFF80
0FFFFFE0
7FFD7FFC
7FF41FFC
3FD007F8
1F4001F4
04000050
00000000
00140000
007C0000
00FD0000
01FF0000
02FF0000
03FF4000
03FF8000
07FF4000
0BFF0000
0FFE0000
0FFD0000
1FFC0000
2FF80000
2FF80000
2FF40000
2FF40000
3FF40000
2FF40000
2FF40000
1FF40000
0FF40000
0BF00000
01400000
ENDCHAR
STARTCHAR idieresis
ENCODING 239
SWIDTH 320 0
DWIDTH 12 0
BBX 16 32 1 -1
BITMAP
01000100
2F800FF4
7FE00FFD
BFF40FFE
BFF00FFD
7F8007F4
15000040
00000000
00000000
00140000
007C0000
00FD0000
01FF0000
02FF0000
03FF4000
03FF8000
07FF4000
0BFF0000
0FFE0000
0FFD0000
1FFC0000
2FF80000
2FF80000
2FF40000
2FF40000
3FF40000
2FF40000
2FF40000
1FF40000
0FF40000
0BF00000
01400000
ENDCHAR
STARTCHAR eth
ENCODING 240
SWIDTH 541 0
DWIDTH 19 0
BBX 20 23 -1 -1
BITMAP
0024000000
007F400000
007FF90000
007FFFD000
007FFFF400
00BFFFFE00
007F1BFF80
007F40BFF0
017F900FF8
6FFFF803FD
BFFFFD00FE
BFFFFE00FE
BFFFF803FF
7EFF801FFE
00FF42FFFD
01FF6FFFF4
02FFFFFFD0
03FFFFFF40
03FFFFF400
02FFFF4000
02FFE40000
00FE400000
0010000000
ENDCHAR
STARTCHAR ntilde
ENCODING 241
SWIDTH 564 0
DWIDTH 20 0
BBX 26 31 -1 0
BITMAP
0000006FA006A0
000002FFFC2FF0
000007FFFE7FE0
00000FFFFFFFC0
00002FF7FFFF40
00003FD1FFFE00
00002A402FE400
00000000000000
00000000000000
00004000140000
0001F4002E0000
0003FD003FD000
0007FF407FF000
000BFF80BFF000
001FFF80BFF000
002FFF40FFD000
007FFF40FFC000
00BFFE01FF8000
01FFFE02FF8000
02FFFE03FF4000
03FFFE07FF4000
0BFFFE0BFF0000
0FFFFE1FFF0000
2FFFFF7FFE0000
3FFFFFFFFD0000
7FFE7FFFFC0000
7FFC3FFFF40000
3FF41FFFE00000
2FF007FFC00000
0FE001FE000000
07D00064000000
ENDCHAR
STARTCHAR ograve
ENCODING 242
SWIDTH 628 0
DWIDTH 23 0
BBX 22 34 0 -1
BITMAP
000001800000
000007E00000
00000FFD0000
00001FFF4000
00001FFFD000
000007FFF400
000001FFFC00
0000003FFE00
0000000BFE00
00000002FE00
000000006D00
0000002E0000
000002FF4000
00000BFFD000
00002FFFF000
0001FFFFD000
0007FFFFE000
001FFFFFF000
007FFFFFF400
01FFFD4BFC00
03FFF407FD00
0BFF8002FF00
1FFE0000FF40
2FFC0000BF80
3FF400007FC0
7FE00000BFD0
BFD00007FFD0
BFD0007FFFC0
BFFABFFFFF80
7FFFFFFFFE00
2FFFFFFFF800
0BFFFFFF9000
02FFFFE40000
001554000000
ENDCHAR
STARTCHAR oacute
ENCODING 243
SWIDTH 628 0
DWIDTH 23 0
BBX 22 35 0 -1
BITMAP
000000019000
00000007F400
0000002FF800
0000007FFC00
000001FFFD00
000007FFF400
00001FFF8000
00007FFE0000
00003FF80000
00003FD00000
00002E000000
000000000000
0000002E0000
000002FF4000
00000BFFD000
00002FFFF000
0001FFFFD000
0007FFFFE000
001FFFFFF000
007FFFFFF400
01FFFD4BFC00
03FFF407FD00
0BFF8002FF00
1FFE0000FF40
2FFC0000BF80
3FF400007FC0
7FE00000BFD0
BFD00007FFD0
BFD0007FFFC0
BFFABFFFFF80
7FFFFFFFFE00
2FFFFFFFF800
0BFFFFFF9000
02FFFFE40000
001554000000
ENDCHAR
STARTCHAR ocircumflex
ENCODING 244
SWIDTH 628 0
DWIDTH 23 0
BBX 23 34 0 -1
BITMAP
0000001A4000
000000BFE000
000002FFF800
00000BFFFE00
00002FFFFF80
0000FFF5FFF4
0000FFD07FF4
0000BF401FF0
00007D0007D0
000014000040
000000000000
0000002E0000
000002FF4000
00000BFFD000
00002FFFF000
0001FFFFD000
0007FFFFE000
001FFFFFF000
007FFFFFF400
01FFFD4BFC00
03FFF407FD00
0BFF8002FF00
1FFE0000FF40
2FFC0000BF80
3FF400007FC0
7FE00000BFD0
BFD00007FFD0
BFD0007FFFC0
BFFABFFFFF80
7FFFFFFFFE00
2FFFFFFFF800
0BFFFFFF9000
02FFFFE40000
001554000000
ENDCHAR
STARTCHAR otilde
ENCODING 245
SWIDTH 628 0
DWIDTH 23 0
BBX 25 32 0 -1
BITMAP
000001BE801A80
00000BFFF0BFC0
00001FFFF9FF80
00003FFFFFFF00
0000BFDFFFFD00
0000FF47FFF800
0000A900BF9000
00000000000000
00000000000000
0000002E000000
000002FF400000
00000BFFD00000
00002FFFF00000
0001FFFFD00000
0007FFFFE00000
001FFFFFF00000
007FFFFFF40000
01FFFD4BFC0000
03FFF407FD0000
0BFF8002FF0000
1FFE0000FF4000
2FFC0000BF8000
3FF400007FC000
7FE00000BFD000
BFD00007FFD000
BFD0007FFFC000
BFFABFFFFF8000
7FFFFFFFFE0000
2FFFFFFFF80000
0BFFFFFF900000
02FFFFE4000000
00155400000000
ENDCHAR
STARTCHAR odieresis
ENCODING 246
SWIDTH 628 0
DWIDTH 23 0
BBX 24 32 0 -1
BITMAP
000001000100
00002F800FF4
0000BFE01FFD
0000FFF01FFD
0000FFF01FFC
0000BF8007F4
000015000040
000000000000
000000000000
0000002E0000
000002FF4000
00000BFFD000
00002FFFF000
0001FFFFD000
0007FFFFE000
001FFFFFF000
007FFFFFF400
01FFFD4BFC00
03FFF407FD00
0BFF8002FF00
1FFE0000FF40
2FFC0000BF80
3FF400007FC0
7FE00000BFD0
BFD00007FFD0
BFD0007FFFC0
BFFABFFFFF80
7FFFFFFFFE00
2FFFFFFFF800
0BFFFFFF9000
02FFFFE40000
001554000000
ENDCHAR
STARTCHAR divide
ENCODING 247
SWIDTH 559 0
DWIDTH 20 0
BBX 19 22 0 -1
BITMAP
00001E0000
00007FC000
0000FFE000
0000FFF000
0000FFD000
0000BFC000
0000150000
0000000000
006AAAA900
BFFFFFFFD0
BFFFFFFFF8
BFFFFFFFF8
7FFFFFFA90
2F95000000
0000000000
000B900000
001FFC0000
003FFC0000
003FF80000
002FF40000
001FE00000
0001400000
ENDCHAR
STARTCHAR oslash
ENCODING 248
SWIDTH 632 0
DWIDTH 23 0
BBX 22 27 0 -5
BITMAP
0000002E0280
000002FF8BD0
00000BFFFFD0
00002FFFFFD0
0001FFFFFFD0
0003FFFFFFC0
001FFFFFFF40
007FFFFFFD00
00FFFEBFFC00
02FFF4FFFE00
0BFFD3FFFF00
1FFE4BFEFF80
2FFC1FFC7F80
3FF47FF47FC0
7FE1FFE0BFD0
BFD3FF86FFD0
BFDFFF6FFFD0
BFFFFFFFFFC0
7FFFFFFFFF40
2FFFFFFFF800
0FFFFFFF9000
03FFFFE40000
03FFA4000000
03FF00000000
03FE00000000
01FC00000000
001000000000
ENDCHAR
STARTCHAR ugrave
ENCODING 249
SWIDTH 584 0
DWIDTH 21 0
BBX 21 34 1 0
BITMAP
000180000000
0007F0000000
000FFD000000
001FFF400000
001FFFD00000
0007FFF40000
0000FFFC0000
00002FFF0000
00000BFF0000
000002FF0000
0000006D0000
000000000000
000000001400
000000003D00
000000003F00
07400000BF00
0FC00000BF40
1FE00000FF80
1FF00001FFC0
2FF40001FF80
2FF80003FF40
3FF40007FF40
3FF0000FFF00
7FF0002FFD00
7FF000BFFC00
7FF002FFF400
3FF02FFFE000
3FFAFFFF8000
3FFFFFFE0000
1FFFFFFC0000
1FFFFFF40000
0BFFFF800000
07FFFD000000
00BF90000000
ENDCHAR
STARTCHAR uacute
ENCODING 250
SWIDTH 584 0
DWIDTH 21 0
BBX 21 32 1 0
BITMAP
00000000A000
00000002F800
0000000FFD00
0000003FFE00
000000FFFE00
000003FFF800
00000BFFD000
00002FFF4000
00002FFC0000
00002FE00000
00000E401400
000000003D00
000000003F00
07400000BF00
0FC00000BF40
1FE00000FF80
1FF00001FFC0
2FF40001FF80
2FF80003FF40
3FF40007FF40
3FF0000FFF00
7FF0002FFD00
7FF000BFFC00
7FF002FFF400
3FF02FFFE000
3FFAFFFF8000
3FFFFFFE0000
1FFFFFFC0000
1FFFFFF40000
0BFFFF800000
07FFFD000000
00BF90000000
ENDCHAR
STARTCHAR ucircumflex
ENCODING 251
SWIDTH 584 0
DWIDTH 21 0
BBX 21 33 1 0
BITMAP
000001E00000
00000BFD0000
00007FFF4000
0001FFFFD000
0007FFFFF800
001FFE2FFE00
002FFC0BFF00
001FF002FE00
000B8000B800
000100001000
000000000000
000000001400
000000003D00
000000003F00
07400000BF00
0FC00000BF40
1FE00000FF80
1FF00001FFC0
2FF40001FF80
2FF80003FF40
3FF40007FF40
3FF0000FFF00
7FF0002FFD00
7FF000BFFC00
7FF002FFF400
3FF02FFFE000
3FFAFFFF8000
3FFFFFFE0000
1FFFFFFC0000
1FFFFFF40000
0BFFFF800000
07FFFD000000
00BF90000000
ENDCHAR
STARTCHAR udieresis
ENCODING 252
SWIDTH 584 0
DWIDTH 21 0
BBX 21 31 1 0
BITMAP
000040004000
000BE002FD00
001FF803FF40
002FFD03FF80
002FFC03FF40
001FF401FD00
000540001000
000000000000
000000000000
000000001400
000000003D00
000000003F00
07400000BF00
0FC00000BF40
1FE00000FF80
1FF00001FFC0
2FF40001FF80
2FF80003FF40
3FF40007FF40
3FF0000FFF00
7FF0002FFD00
7FF000BFFC00
7FF002FFF400
3FF02FFFE000
3FFAFFFF8000
3FFFFFFE0000
1FFFFFFC0000
1FFFFFF40000
0BFFFF800000
07FFFD000000
00BF90000000
ENDCHAR
STARTCHAR yacute
ENCODING 253
SWIDTH 400 0
DWIDTH 14 0
BBX 19 37 1 -1
BITMAP
0000000240
0000000BD0
0000007FF0
000001FFF8
000007FFF8
00001FFFE0
00003FFF40
0000BFFC00
0000BFE000
0000BF8000
0000790000
0000000000
0000000000
0000000000
1800002D00
3F8000FF40
3FE002FFD0
3FF00BFFD0
2FF02FFF80
2FF47FFD00
2FF4FFF800
1FFAFFE000
0FFFFF8000
0BFFFF0000
07FFFD0000
03FFFC0000
01FFF40000
01FFE00000
03FFD00000
07FF400000
0FFF000000
1FFD000000
3FFC000000
7FF4000000
7FE0000000
3FD0000000
1F80000000
ENDCHAR
STARTCHAR thorn
ENCODING 254
SWIDTH 579 0
DWIDTH 21 0
BBX 20 22 1 0
BITMAP
00B0000000
03F4000000
07F8000000
0BFD000000
0FFFFFA500
1FFFFFFF90
1FFFFFFFF4
2FFFFFFFFD
2FFD556FFE
3FF8001FFF
7FF4007FFF
BFF006FFFE
BFF06FFFF8
BFFAFFFFE0
BFFFFFFE40
FFFFFFE400
FFFFF90000
BFFE400000
BFE0000000
7FD0000000
3FD0000000
1F80000000
ENDCHAR
STARTCHAR ydieresis
ENCODING 255
SWIDTH 400 0
DWIDTH 14 0
BBX 20 33 1 -1
BITMAP
0001000000
006F401FF0
00FFD01FFC
00FFF01FFD
00FFE02FFC
00BF800BE4
0015000140
0000000000
0000000000
0000000000
1800002D00
3F8000FF40
3FE002FFD0
3FF00BFFD0
2FF02FFF80
2FF47FFD00
2FF4FFF800
1FFAFFE000
0FFFFF8000
0BFFFF0000
07FFFD0000
03FFFC0000
01FFF40000
01FFE00000
03FFD00000
07FF400000
0FFF000000
1FFD000000
3FFC000000
7FF4000000
7FE0000000
3FD0000000
1F80000000
ENDCHAR
STARTCHAR dotlessi
ENCODING 305
SWIDTH 320 0
DWIDTH 12 0
BBX 8 23 2 -1
BITMAP
0050
01F0
03F4
07FC
0BFC
0FFD
0FFE
1FFD
2FFC
3FF8
3FF4
7FF0
BFE0
BFE0
BFD0
BFD0
FFD0
BFD0
BFD0
7FD0
3FD0
2FC0
0500
ENDCHAR
STARTCHAR Lslash
ENCODING 321
SWIDTH 632 0
DWIDTH 23 0
BBX 26 27 -4 -1
BITMAP
00000B94000000
00000FFD000000
00001FFF000000
00002FFF400000
00003FFF000000
00007FFE000000
0000BFFD000000
0000FFF8000000
0001FFFE800000
0002FFFFF80000
001BFFFFFC0000
01FFFFFFE00000
2FFFFFFE400000
7FFFFF90000000
3FFFFF40000000
1FFFFF00000000
06BFFD00000000
007FFC00000000
00BFFC00154000
00BFFD6FFFF800
00BFFFFFFFFF80
007FFFFFFFFFE0
003FFFFFFFFFE0
002FFFFFFFFFF0
000FFFFFFEBF90
0007FFE4000000
00005500000000
ENDCHAR
STARTCHAR lslash
ENCODING 322
SWIDTH 533 0
DWIDTH 19 0
BBX 23 23 -4 -1
BITMAP
000019000000
00003FD00000
00003FF00000
00007FF40000
0000BFF00000
0000FFE00000
0001FFD00000
0003FFD40000
0007FFFE4000
001BFFFFC000
06FFFFFE4000
7FFFFFE40000
7FFFFD000000
3FFFF8000000
1FFFF4000000
007FF0000000
00BFF1AAF900
00BFFFFFFF90
007FFFFFFFF0
003FFFFFFFF4
002FFFFFFFF4
000FFFE55540
0001A4000000
ENDCHAR
STARTCHAR OE
ENCODING 338
SWIDTH 1212 0
DWIDTH 44 0
BBX 45 28 0 -1
BITMAP
00000000A400000000000000
00000006FC000000005AA400
0000002FFF000001AFFFFE00
000000BFFFC001AFFFFFFF80
000002FFFFD06FFFFFFFFF40
00001FFFFFC1FFFFFFFFFE00
00007FFFFF81FFFFFFFFE400
0001FFFFFFC0FFFFFFE50000
000BFFFFFFE0FFFFE9000000
002FFFFFFFF0BFFD00000000
007FFFE53FF87FFC01500000
00FFFF401FFC3FFFFFF40000
02FFFD000FFE7FFFFFFD0000
0BFFF00007FFFFFFFFFF4000
0FFFC00002FFFFFFFFFF4000
2FFF400001FFFFFFFFF80000
3FFE000000FFFFFFFF900000
7FFC000001FFFFC100000000
7FF400000BFFFF4000000000
BFF000007FFFFF0000010000
BFF4005BFFFFFE0015BF8000
BFFFFFFFFFFFFFFFFFFFE000
7FFFFFFFFFFFFFFFFFFFF400
2FFFFFFFFFFFFFFFFFFFF000
0FFFFFFFFF9BFFFFFFFFD000
07FFFFFFF403FFFFFFFE4000
00BFFFE94000BFFFFA500000
000155000000055000000000
ENDCHAR
STARTCHAR oe
ENCODING 339
SWIDTH 1010 0
DWIDTH 36 0
BBX 38 23 0 -1
BITMAP
0000002E000000005500
000002FF400005AFFF40
00000BFFD001BFFFFFD0
00002FFFF06FFFFFFFC0
0001FFFFD0FFFFFFFF40
0007FFFFE0FFFFFFA400
001FFFFFF0FFFFE40000
007FFFFFF4BFF4000000
01FFFD4BFC3FF5550000
03FFF403FE3FFFFF4000
0BFFC002FFBFFFFFD000
1FFE0000FFFFFFFFE000
2FFC0000BFFFFFFF8000
3FF400007FFFFFF90000
7FE00000BFFF40000000
BFD00007FFFE00000000
BFD0017FFFFC0006E000
BFFABFFFFFFEAFFFF800
7FFFFFFFFFFFFFFFFD00
2FFFFFFFFFFFFFFFFC00
0BFFFFFF93FFFFFFF400
02FFFFE401FFFFFA4000
00155400001554000000
ENDCHAR
STARTCHAR Scaron
ENCODING 352
SWIDTH 576 0
DWIDTH 21 0
BBX 25 39 0 -1
BITMAP
00001400018000
00007E0007E000
0000FF802FF000
0001FFE07FF400
0000BFF5FFE000
00002FFFFF8000
000007FFFE0000
000001FFF80000
0000007FD00000
00000006000000
00000000000000
00000000150000
0000006BFFF400
00001BFFFFFC00
0006FFFFFFFE00
007FFFFFFFFF00
07FFFFFFFFFF80
2FFFFFFFFFFF40
7FFFFF94141400
7FFFF800000000
BFFFFE40000000
7FFFFFE4000000
7FFFFFFC000000
1FFFFFFE000000
01AFFFFF400000
00005BFF800000
0000007FE00000
0000001FE00000
0000007FF00000
000000FFF00000
00000BFFE00000
0001BFFFC00000
056FFFFF400000
0FFFFFFE000000
0FFFFFF8000000
0FFFFFD0000000
0BFFFD00000000
07FF9000000000
01540000000000
ENDCHAR
STARTCHAR scaron
ENCODING 353
SWIDTH 463 0
DWIDTH 17 0
BBX 21 35 0 -1
BITMAP
001800009000
003E0007F000
00BFC01FF400
00BFF03FF800
007FF8FFF400
001FFFFFC000
0003FFFF0000
0000FFF80000
00002FE00000
000006400000
000000000000
000000000000
0000006A9400
00006BFFFC00
0007FFFFFE00
01BFFFFFFF40
1FFFFFFFFF80
3FFFFFAAAA00
7FFFD0000000
BFFFE4000000
7FFFFE000000
7FFFFF800000
1BFFFFD00000
0056BFF00000
00000BF80000
000002FC0000
000007FC0000
00002FFC0000
0001FFF40000
056FFFF00000
1FFFFFC00000
1FFFFE000000
1FFFF4000000
0FFF40000000
069400000000
ENDCHAR
STARTCHAR Ydieresis
ENCODING 376
SWIDTH 493 0
DWIDTH 18 0
BBX 21 37 1 -1
BITMAP
000040004000
000BE002FD00
001FF803FF40
002FFD03FF80
002FFC03FF40
001FF401FD00
000540001000
000000000000
000000000000
040000005000
2E400002F800
3FE0000FFE00
3FF8003FFF80
2FFC00BFFF80
2FFC02FFFF00
2FFD07FFF800
1FFE0FFFF000
1FFE2FFFD000
0FFFBFFF4000
0FFFFFFD0000
0BFFFFF80000
07FFFFF00000
02FFFFD00000
01FFFF800000
00BFFF400000
00BFFE000000
01FFFC000000
02FFF4000000
07FFE0000000
0BFFD0000000
1FFF80000000
2FFF40000000
3FFE00000000
7FFC00000000
7FF800000000
2FF000000000
0BD000000000
ENDCHAR
STARTCHAR Zcaron
ENCODING 381
SWIDTH 664 0
DWIDTH 24 0
BBX 27 41 -1 -2
BITMAP
00000018000180
0000007E0007E0
000000BFC01FF4
000000FFE07FF8
000000BFF9FFF4
0000001FFFFF80
00000007FFFE00
00000001FFF800
000000002FE000
00000000064000
00000000000000
00000000000000
00000000000000
0001AAAAAA6900
000BFFFFFFFF80
000BFFFFFFFFD0
000BFFFFFFFFF0
0007FFFFFFFFF0
0002FFFFFFFFE0
0000A555FFFFD0
00000007FFFF40
0000001FFFF800
000000BFFFD000
000006FFFF4000
00002FFFFD0000
0001FFFFF40000
000BFFFFD00000
006FFFFE000000
01FFFFF4000000
0BFFFF80000000
1FFFFD00000000
2FFFF40006D000
3FFF8006BFF400
7FFF41BFFFFD00
7FFFFFFFFFFD00
7FFFFFFFFFF800
2FFFFFFFFF9000
1FFFFFFFF40000
0BFFFFE9400000
01BFFA40000000
00154000000000
ENDCHAR
STARTCHAR zcaron
ENCODING 382
SWIDTH 547 0
DWIDTH 20 0
BBX 24 37 -1 -2
BITMAP
000005000060
00001F8001F8
00003FE00BFC
00007FF81FFD
00002FFD7FF8
00000BFFFFE0
000001FFFF80
0000007FFE00
0000001FF400
000000018000
000000000000
000000000000
000000000000
000055000400
002FFFFFFF40
002FFFFFFFC0
002FFFFFFFE0
001FFFFFFFE0
0007FAAFFFD0
0000007FFF80
000001FFFD00
00000BFFE000
00007FFF8000
0002FFFF0000
001FFFF80000
007FFFD00000
02FFFE400000
1FFFF8000000
2FFFD0005000
3FFE005BF400
7FFC1BFFFE00
7FFFFFFFFE00
7FFFFFFFF800
2FFFFFFF9000
0FFFFFE40000
06FFE4000000
005500000000
ENDCHAR
STARTCHAR circumflex
ENCODING 710
SWIDTH 754 0
DWIDTH 27 0
BBX 15 10 8 18
BITMAP
00068000
002FF400
00FFFD00
03FFFF80
1FFFFFE0
7FFC7FF8
7FF02FFC
3FD00BF8
1E0001F0
04000040
ENDCHAR
STARTCHAR caron
ENCODING 711
SWIDTH 754 0
DWIDTH 27 0
BBX 15 10 8 18
BITMAP
09000090
2F4002F4
7FD00BF8
BFF42FFC
7FFDBFF8
0BFFFFD0
02FFFF40
00BFFD00
002FF000
00024000
ENDCHAR
STARTCHAR breve
ENCODING 728
SWIDTH 754 0
DWIDTH 27 0
BBX 15 8 8 20
BITMAP
09000090
2F4002F4
7FD00BF8
BFF96FFC
7FFFFFF8
1FFFFFE0
03FFFF80
006FE400
ENDCHAR
STARTCHAR dotaccent
ENCODING 729
SWIDTH 754 0
DWIDTH 27 0
BBX 7 7 12 20
BITMAP
0040
1BD0
3FF4
7FF8
7FF4
3FD0
0540
ENDCHAR
STARTCHAR ring
ENCODING 730
SWIDTH 754 0
DWIDTH 27 0
BBX 11 12 10 18
BITMAP
000100
000B80
007FD0
01FFC0
07FFE0
1FFFF0
2FE7F8
7F8BFC
7FFFFC
7FFFF8
3FFFE0
1BF900
ENDCHAR
STARTCHAR ogonek
ENCODING 731
SWIDTH 754 0
DWIDTH 27 0
BBX 15 12 10 -10
BITMAP
05000000
1F000000
2F000000
7F000000
7F400000
7F400000
3FD00000
2FFEA940
0FFFFFE0
07FFFFF4
00BFFFE0
00016940
ENDCHAR
STARTCHAR tilde
ENCODING 732
SWIDTH 754 0
DWIDTH 27 0
BBX 18 7 7 20
BITMAP
00AF801A80
07FFF47FD0
1FFFFDFFC0
2FFFFFFF40
7FEBFFFE00
FF82FFF800
69006F9000
ENDCHAR
STARTCHAR hungarumlaut
ENCODING 733
SWIDTH 754 0
DWIDTH 27 0
BBX 20 11 6 16
BITMAP
00024000A0
001FD002F8
007FF01FFD
01FFF43FFE
07FFF4FFFE
1FFFD3FFF8
7FFE0BFFD0
FFF82FFF40
FFE02FFC00
FF402FE000
78001E4000
ENDCHAR
STARTCHAR endash
ENCODING 8211
SWIDTH 588 0
DWIDTH 21 0
BBX 19 7 0 6
BITMAP
0000014000
1ABFFFFF90
7FFFFFFFF4
7FFFFFFFFC
3FFFFFFFF8
2FFEAAA540
0540000000
ENDCHAR
STARTCHAR emdash
ENCODING 8212
SWIDTH 878 0
DWIDTH 32 0
BBX 30 6 0 7
BITMAP
0001555555540000
2FFFFFFFFFFFE800
7FFFFFFFFFFFFE40
3FFFFFFFFFFFFFD0
2FFFFFFFFFFFFF90
07FEA95555554000
ENDCHAR
STARTCHAR quoteleft
ENCODING 8216
SWIDTH 203 0
DWIDTH 7 0
BBX 9 12 3 16
BITMAP
004000
03F800
0BFF40
1FFF40
2FFE00
3FFC00
7FF400
BFF000
BFE000
BFC000
7FC000
064000
ENDCHAR
STARTCHAR quoteright
ENCODING 8217
SWIDTH 199 0
DWIDTH 7 0
BBX 9 11 2 16
BITMAP
01F900
02FF80
02FF80
03FFC0
07FF80
0BFF40
0FFF00
2FFD00
7FF800
3FF000
078000
ENDCHAR
STARTCHAR quotesinglbase
ENCODING 8218
SWIDTH 204 0
DWIDTH 7 0
BBX 9 12 -4 -7
BITMAP
01E400
03FE00
07FF40
07FF40
0BFF40
0FFF00
2FFE00
3FFC00
BFF400
BFE000
1F8000
010000
ENDCHAR
STARTCHAR quotedblleft
ENCODING 8220
SWIDTH 410 0
DWIDTH 15 0
BBX 16 13 3 15
BITMAP
01400140
07E40BE4
0FFE1FFE
2FFE3FFE
3FFC7FFC
3FF8BFF8
7FF4FFF0
BFE1FFD0
BFD1FFC0
BFC1FF80
BFC0FF40
7F801A00
01400000
ENDCHAR
STARTCHAR quotedblright
ENCODING 8221
SWIDTH 425 0
DWIDTH 15 0
BBX 17 12 2 16
BITMAP
0000001000
01F900B900
02FF80FFC0
02FF81FFC0
03FFC3FFC0
07FF87FF80
0BFF4BFF40
0FFF1FFE00
2FFD3FFC00
7FF8BFF400
3FF07FE000
07801B4000
ENDCHAR
STARTCHAR quotedblbase
ENCODING 8222
SWIDTH 430 0
DWIDTH 16 0
BBX 17 12 -4 -7
BITMAP
01E400A400
03FE02FF40
07FF43FF80
07FF47FF80
0BFF4BFF40
0FFF0FFF00
2FFE2FFD00
3FFC7FF800
BFF5FFF000
BFE1FFD000
1F806F4000
0100040000
ENDCHAR
STARTCHAR bullet
ENCODING 8226
SWIDTH 299 0
DWIDTH 11 0
BBX 8 9 1 6
BITMAP
0640
2FF0
7FF8
BFFD
BFFE
BFFC
BFF8
3FE4
0400
ENDCHAR
STARTCHAR ellipsis
ENCODING 8230
SWIDTH 768 0
DWIDTH 28 0
BBX 26 7 -1 -1
BITMAP
05000140001400
2FE003FE007FD0
BFF40FFF01FFE0
FFF00FFF01FFE0
BFE00BFE00FFD0
7FD007FD00BFC0
1F4002E0002E00
ENDCHAR
STARTCHAR perthousand
ENCODING 8240
SWIDTH 889 0
DWIDTH 32 0
BBX 32 26 1 0
BITMAP
0002400000100000
000FD00000B40000
007FD00003F40000
01FFD0000FF40000
07FFF0003FF00000
1FFFF800BFE00000
2FD3FC03FF800000
3FDBFD0BFE000000
7FFFFD2FF8000000
3FFFF8BFE0000000
2FFF92FF80000000
06A50BFE00000000
00002FF800000000
0000BFE000000000
0002FF81D0000680
000FFE07F4001FD0
007FF42FF400BFD0
01FFD0BFF802FFE0
07FF42FFFC0BFFF4
0FFD07FEFE1FFBF8
2FF40FF0FF2FD3FC
3FF01FFBFF7FEFFD
7FD01FFFFF7FFFFD
7FD00FFFFD3FFFF4
7F8007FFD01FFF90
2E00005400015000
ENDCHAR
STARTCHAR guilsinglleft
ENCODING 8249
SWIDTH 322 0
DWIDTH 12 0
BBX 12 17 -1 -1
BITMAP
000014
00007D
0001FD
0007FD
002FFC
01FFF4
1BFFD0
7FFE00
7FF800
7FE000
3FF800
1FFF00
07FF80
01FFD0
002FE0
0007F0
000090
ENDCHAR
STARTCHAR guilsinglright
ENCODING 8250
SWIDTH 341 0
DWIDTH 12 0
BBX 11 17 -1 -1
BITMAP
040000
0F4000
0FF400
0BFD00
07FF80
01FFE0
007FF4
000FFC
001FFC
00BFFC
03FFF8
0FFF80
3FF900
BFE000
BF4000
BD0000
240000
ENDCHAR
STARTCHAR fraction
ENCODING 8260
SWIDTH 541 0
DWIDTH 19 0
BBX 19 28 0 -1
BITMAP
0000000014
000000007C
00000001FC
00000007FC
0000000FFC
0000002FFC
000000BFF4
000001FFE0
000003FF80
00000BFE00
00002FFC00
00007FF400
0001FFD000
0003FF8000
000BFE0000
002FFC0000
00BFF40000
01FFD00000
07FF400000
0FFE000000
2FF8000000
3FF0000000
7FE0000000
BFD0000000
BFD0000000
7FD0000000
7F80000000
0500000000
ENDCHAR
STARTCHAR Euro
ENCODING 8364
SWIDTH 565 0
DWIDTH 20 0
BBX 21 22 -1 0
BITMAP
000000019000
0000000BF800
0000007FFE00
000007FFFF40
00006FFFFF00
0001FFFFFD00
0007FFFFE400
001FFFF90000
003FFFD00000
00BFFE000000
01FFFEA50000
7FFFFFFF8000
BFFFFFFFE000
7FFFFFFFE000
3FFFFEA94000
0AFF40000000
00BFFEA95000
007FFFFFF800
001FFFFFFD00
0007FFFFFD00
0000AFFFF400
000001695000
ENDCHAR
STARTCHAR Delta
ENCODING 8710
SWIDTH 403 0
DWIDTH 15 0
BBX 20 23 -1 -1
BITMAP
000056AA50
007FFFFFFC
00FFFFFFFF
00BFFFFFFF
007FFFFFE9
002E7FE000
00003FE000
00007FD000
0000BFC000
0000FF8000
0001FF4000
0002FF0000
0003FF0000
0007FE0000
000BFD0000
001FF80000
002FF40000
057FFF4000
FFFFFFE000
FFFFFFF000
FFFFFFE000
BFEA954000
1500000000
ENDCHAR
STARTCHAR minus
ENCODING 8722
SWIDTH 548 0
DWIDTH 20 0
BBX 19 7 0 6
BITMAP
0000050000
5AFFFFFE40
FFFFFFFFD0
FFFFFFFFF4
FFFFFFFFE0
7FFAAA9500
1500000000
ENDCHAR
STARTCHAR approxequal
ENCODING 8776
SWIDTH 323 0
DWIDTH 12 0
BBX 10 27 1 -1
BITMAP
002D00
00BE00
01FF00
02FF80
03FFC0
03FFC0
0BFFD0
0BFFD0
0BFFC0
0FFF80
1FFF40
2FFF00
3FFE00
3FFD00
7FFC00
7FFC00
7FF800
7FF800
BFF800
BFF800
7FF800
7FF800
3FF800
2FFC00
1FF800
0FF400
014000
ENDCHAR
STARTCHAR fi
ENCODING 64257
SWIDTH 810 0
DWIDTH 29 0
BBX 29 23 -1 -1
BITMAP
00000016AA001400
000016FFFF80B800
0006FFFFFFE1FC00
01BFFFFFFFF2FE00
07FFFFFFEA93FE00
07FFFF940007FF00
07FFF800000BFF40
01FFF400000BFF00
007FF000000FFE00
003FE000001FFD00
007FD015001FFC00
2FFFFFFF402FF800
BFFFFFFFC03FF400
BFFFFFFF803FF400
7FFFFFFE003FF000
2FFFFA50003FF000
0FFD0000007FF000
1FF80000007FF000
1FF40000003FF000
1FF00000002FF000
1FF00000001FF000
0BE00000000FE000
0140000000054000
ENDCHAR
STARTCHAR fl
ENCODING 64258
SWIDTH 1012 0
DWIDTH 36 0
BBX 37 23 -1 -1
BITMAP
00000016AA0190000000
000016FFFF82FE000000
0006FFFFFFE3FF400000
01BFFFFFFFF7FF800000
07FFFFFFEA97FF400000
07FFFF94000BFF000000
07FFF800001FFD000000
01FFF400002FFC000000
007FF000003FF8000000
003FE000007FF4000000
007FD01500BFF0000000
2FFFFFFF40FFE0000000
BFFFFFFFC1FFD0000000
BFFFFFFF82FFC0000000
7FFFFFFE03FF80000000
2FFFFA5003FF40000000
0FFD000007FF46AF9000
1FF8000007FFFFFFFD00
1FF4000003FFFFFFFF40
1FF0000002FFFFFFFF80
1FF0000001FFFFFFFF80
0BE0000000BFFE555500
01400000001650000000
ENDCHAR
STARTCHAR .notdef
ENCODING -1
SWIDTH 370 0
DWIDTH 13 0
BBX 1 1 0 0
BITMAP
00
ENDCHAR
ENDFONT
